<svg width="30" height="30" viewBox="0 0 30 30" fill="none" xmlns="http://www.w3.org/2000/svg">
<path d="M11.25 10L12.5 7.5H17.5L18.75 10H11.25Z"
  stroke-linejoin="round"/>

<path d="M22.0833 10H7.91663C7.22627 10 6.66663 10.5596 6.66663 11.25V21.25C6.66663 21.9404 7.22627 22.5 7.91663 22.5H22.0833C22.7736 22.5 23.3333 21.9404 23.3333 21.25V11.25C23.3333 10.5596 22.7736 10 22.0833 10Z" 
 stroke-linejoin="round"/>

<path d="M15 19.5834C16.8409 19.5834 18.3333 18.091 18.3333 16.2501C18.3333 14.4091 16.8409 12.9167 15 12.9167C13.159 12.9167 11.6666 14.4091 11.6666 16.2501C11.6666 18.091 13.159 19.5834 15 19.5834Z"
  stroke-linejoin="round"/>

<rect x="1" y="1" width="28" height="28" rx="14"
 />
</svg>
