<svg width="4" height="14" viewBox="0 0 4 14" fill="none" xmlns="http://www.w3.org/2000/svg">
<path d="M3.32812 0.914062L3.0542 9.30615H1.06201L0.779785 0.914062H3.32812ZM0.713379 11.9043C0.713379 11.5501 0.835124 11.2568 1.07861 11.0244C1.32764 10.7865 1.65413 10.6675 2.05811 10.6675C2.46761 10.6675 2.79411 10.7865 3.0376 11.0244C3.28109 11.2568 3.40283 11.5501 3.40283 11.9043C3.40283 12.2474 3.28109 12.5379 3.0376 12.7759C2.79411 13.0138 2.46761 13.1328 2.05811 13.1328C1.65413 13.1328 1.32764 13.0138 1.07861 12.7759C0.835124 12.5379 0.713379 12.2474 0.713379 11.9043Z" fill="#F0F2F2"/>
</svg>
