<svg width="24" height="24" viewBox="0 0 24 24" fill="none" xmlns="http://www.w3.org/2000/svg">
<path d="M5.5 5.5L7.88781 7.88781M18.5 18.5L16.2366 16.2366M10.5858 10.5858C10.2239 10.9477 10 11.4477 10 12C10 13.1046 10.8954 14 12 14C12.5523 14 13.0523 13.7761 13.4142 13.4142M10.5858 10.5858L13.4142 13.4142M10.5858 10.5858L8.04289 8.04289L7.88781 7.88781M13.4142 13.4142L16.2366 16.2366M7.88781 7.88781L16.2366 16.2366" 

stroke-width="1.5" stroke-linecap="round"/>
<path d="M18.3118 14.2219C18.7783 13.685 19.2175 13.1205 19.6223 12.5493C19.8558 12.22 19.8555 11.7803 19.6246 11.4491C17.6834 8.66505 15.1498 6.0405 12.0714 6.00046C12.0241 5.99985 11.9765 6.00326 11.9297 6.01035C11.4977 6.07574 11.0886 6.17181 10.6997 6.29567M15.3261 16.8901C14.2753 17.5627 13.1737 17.9821 12.0711 17.9994C12.0237 18.0002 11.9759 17.9967 11.9291 17.9896C8.68897 17.4988 6.74055 15.2829 4.87288 12.5526C4.64495 12.2194 4.64498 11.7805 4.87291 11.4473C5.61397 10.364 6.36774 9.36166 7.20988 8.51593C7.5774 8.14684 8.16962 8.17301 8.538 8.54125L15.4437 15.4442C15.8661 15.8665 15.8293 16.5681 15.3261 16.8901Z" 

stroke-width="1.5" stroke-linecap="round" stroke-linejoin="round"/>
</svg>
