<svg width="20" height="20" viewBox="0 0 20 20" fill="none" xmlns="http://www.w3.org/2000/svg">
<g clip-path="url(#clip0_260_13900)">
<path d="M19.0001 10.165C19.0001 9.42677 18.9388 8.88803 18.8061 8.32935H10.1791V11.6615H15.2429C15.1409 12.4896 14.5896 13.7367 13.3644 14.5747L13.3472 14.6863L16.0749 16.7512L16.2639 16.7696C17.9995 15.2033 19.0001 12.8986 19.0001 10.165Z" fill="#4285F4"/>
<path d="M10.179 18.9449C12.6599 18.9449 14.7426 18.1467 16.2639 16.77L13.3644 14.575C12.5885 15.1038 11.5471 15.4729 10.179 15.4729C7.7492 15.4729 5.68689 13.9066 4.95174 11.7417L4.84398 11.7506L2.00767 13.8956L1.97058 13.9964C3.48157 16.9295 6.58527 18.9449 10.179 18.9449Z" fill="#34A853"/>
<path d="M4.95171 11.7415C4.75774 11.1828 4.64547 10.5842 4.64547 9.96565C4.64547 9.34706 4.75774 8.74848 4.94151 8.18979L4.93637 8.07081L2.06453 5.89136L1.97056 5.93503C1.34781 7.1522 0.990479 8.51904 0.990479 9.96565C0.990479 11.4123 1.34781 12.779 1.97056 13.9962L4.95171 11.7415Z" fill="#FBBC05"/>
<path d="M10.179 4.45844C11.9044 4.45844 13.0682 5.18673 13.7319 5.79535L16.3251 3.32112C14.7324 1.8745 12.6599 0.986572 10.179 0.986572C6.58525 0.986572 3.48157 3.00185 1.97058 5.93497L4.94152 8.18973C5.68688 6.0248 7.74918 4.45844 10.179 4.45844Z" fill="#EB4335"/>
</g>
<defs>
<clipPath id="clip0_260_13900">
<rect width="20" height="20" fill="white"/>
</clipPath>
</defs>
</svg>
