<svg width="255" height="227" viewBox="0 0 255 227" fill="none" xmlns="http://www.w3.org/2000/svg">
<path d="M140.029 55.757C139.856 55.8307 140.041 55.9756 139.928 56.0841C139.825 56.1832 139.718 56.2779 139.617 56.3796C139.555 56.4409 139.533 56.4575 139.503 56.5351C139.489 56.5694 139.489 56.6068 139.477 56.6393C139.461 56.683 139.411 56.7055 139.395 56.7471C139.378 56.7916 139.34 56.8362 139.31 56.8764C139.287 56.9081 139.265 56.9194 139.249 56.9537C139.235 56.9832 139.228 57.0249 139.212 57.0507C139.138 57.1698 139.053 57.2578 139.01 57.3966C138.988 57.4685 138.952 57.5504 138.945 57.6248C138.937 57.6951 138.854 57.703 138.808 57.7389C138.759 57.7771 138.719 57.8246 138.667 57.8593C138.516 57.9599 138.463 58.1692 138.316 58.2707C138.203 58.3486 138.108 58.4488 138.024 58.5546M138.654 58.118C138.653 58.1696 138.634 58.3024 138.586 58.3408C138.541 58.377 138.474 58.398 138.432 58.445C138.394 58.4873 138.368 58.6802 138.299 58.684C138.24 58.6873 138.18 58.684 138.121 58.684C138.105 58.684 138.086 58.6904 138.067 58.6985M138.067 58.6985C138.015 58.7204 137.959 58.7545 137.959 58.7092C137.959 58.6151 137.975 58.523 137.975 58.4289C137.975 58.384 137.968 58.3347 137.995 58.2959C138.055 58.2095 138.125 58.1068 138.198 58.0336C138.231 58.0008 138.234 58.1034 138.234 58.1216C138.234 58.2051 138.202 58.2858 138.202 58.3678C138.202 58.5018 138.148 58.6094 138.067 58.6985ZM138.067 58.6985C137.92 58.8593 137.683 58.9603 137.506 59.0488C137.436 59.084 137.392 59.132 137.344 59.1838M137.344 59.1838C137.328 59.2002 137.313 59.217 137.296 59.2338C137.268 59.2619 137.255 59.327 137.297 59.2716C137.318 59.2444 137.332 59.2145 137.344 59.1838ZM137.344 59.1838C137.367 59.1241 137.382 59.0611 137.425 59.0083C137.527 58.8797 137.642 58.7841 137.726 58.6427C137.761 58.5848 137.797 58.5374 137.797 58.4666C137.797 58.4345 137.821 58.4214 137.846 58.4091M138.867 51.9727C138.881 51.9946 138.894 52.0023 138.912 52.0176C138.927 52.0299 138.942 52.0434 138.959 52.0528C138.989 52.0695 138.991 52.119 139.01 52.1463C139.055 52.2128 139.125 52.2572 139.192 52.2991C139.213 52.3123 139.229 52.3315 139.25 52.3446C139.278 52.3615 139.305 52.3785 139.332 52.3961C139.358 52.4133 139.378 52.4403 139.403 52.4594C139.441 52.4875 139.471 52.5224 139.508 52.5508C139.531 52.5687 139.554 52.5872 139.576 52.6072C139.591 52.6219 139.6 52.6411 139.615 52.6563C139.642 52.6845 139.67 52.7135 139.695 52.744C139.706 52.7573 139.718 52.7697 139.73 52.7821C139.743 52.7964 139.749 52.8159 139.763 52.8305C139.82 52.8925 139.881 52.9498 139.925 53.0226C139.947 53.0598 139.982 53.0852 140.004 53.1216C140.01 53.1304 140.007 53.1508 140.007 53.1613C140.007 53.186 139.986 53.1165 139.977 53.0938M139.566 52.4532C139.511 52.4158 139.44 52.386 139.398 52.3318C139.386 52.315 139.371 52.299 139.357 52.2828C139.344 52.2676 139.333 52.2509 139.319 52.2359C139.309 52.2245 139.289 52.2137 139.281 52.201C139.271 52.1825 139.221 52.1711 139.203 52.1641C139.174 52.1529 139.154 52.1273 139.127 52.1133C139.111 52.1052 139.088 52.0899 139.07 52.0899M136 66.7071C136.059 66.7119 136.118 66.7101 136.176 66.7157C136.205 66.7185 136.233 66.7208 136.262 66.7168C136.29 66.7128 136.32 66.7153 136.349 66.7149C136.369 66.7145 136.389 66.7079 136.41 66.7068C136.516 66.7013 136.618 66.6772 136.721 66.6545C136.804 66.6363 136.886 66.6271 136.971 66.6211C137.032 66.6168 137.095 66.5991 137.156 66.602C137.263 66.6072 137.369 66.6133 137.476 66.6133H137.629C137.713 66.6133 137.798 66.6048 137.881 66.5996C137.979 66.5936 138.075 66.5727 138.17 66.5525C138.216 66.5427 138.262 66.5315 138.308 66.5209C138.364 66.5077 138.421 66.5 138.479 66.4961C138.515 66.4937 138.552 66.4958 138.582 66.4727M138.807 66.4315C139.002 66.3975 139.206 66.4479 139.4 66.4135C139.54 66.3886 139.709 66.4402 139.841 66.3938C140.005 66.3365 140.231 66.3725 140.402 66.3725C140.474 66.3725 140.541 66.3443 140.612 66.343C140.691 66.3416 140.769 66.343 140.848 66.343C140.983 66.343 141.128 66.3392 141.263 66.3274C141.319 66.3226 141.38 66.3196 141.434 66.3062C141.476 66.2957 141.519 66.2996 141.562 66.2955C141.639 66.2881 141.73 66.2587 141.806 66.2726C141.909 66.2913 142.011 66.3439 142.117 66.3209C142.265 66.2887 142.416 66.301 142.567 66.3135M142.419 66.3283C142.59 66.3283 142.77 66.3424 142.938 66.3102C143.034 66.292 143.151 66.3085 143.242 66.2808C143.293 66.2648 143.347 66.2797 143.399 66.266C143.509 66.2371 143.6 66.2103 143.717 66.2103C143.789 66.2103 143.84 66.2067 143.905 66.1841C144.032 66.1402 144.163 66.1248 144.293 66.0923C144.435 66.0566 144.576 66.0163 144.72 65.9826C144.825 65.958 144.937 65.9538 145.044 65.9302C145.106 65.9163 145.164 65.8954 145.228 65.8859C145.367 65.8654 145.512 65.8005 145.642 65.7532C145.698 65.7327 145.763 65.726 145.817 65.7016C145.862 65.6813 145.997 65.6486 145.884 65.6647M144.233 66.0924C144.336 66.0308 144.449 65.9471 144.562 65.9007C144.603 65.8838 144.653 65.8785 144.69 65.8532C144.732 65.8243 144.765 65.7829 144.808 65.7541C144.874 65.7097 144.941 65.6872 145.014 65.6574C145.102 65.6214 145.178 65.5688 145.273 65.5501C145.402 65.5247 145.537 65.5013 145.656 65.4436C145.721 65.4126 145.791 65.4044 145.858 65.3813C145.907 65.3643 145.949 65.3372 146 65.3256C146.039 65.3172 146.068 65.2805 146.107 65.2667C146.167 65.2454 146.194 65.2321 146.245 65.1962C146.295 65.1605 146.361 65.1516 146.409 65.111C146.487 65.0456 146.6 65.0283 146.68 64.9685C146.771 64.9014 146.843 64.8443 146.949 64.8063C147.111 64.7483 147.259 64.6539 147.421 64.5999C147.577 64.5478 147.727 64.4887 147.882 64.4409C148.042 64.3918 148.171 64.2942 148.316 64.2124C148.493 64.1127 148.678 64.0174 148.863 63.9249M148.465 64.6621C148.591 64.5852 148.708 64.5491 148.847 64.5073C148.964 64.4721 149.074 64.4046 149.194 64.3828C149.419 64.3418 149.677 64.3 149.882 64.1976C149.942 64.1674 150.007 64.1916 150.066 64.1673C150.141 64.1364 150.218 64.1448 150.293 64.1239C150.456 64.0787 150.639 64.0598 150.807 64.0362C150.998 64.0095 151.208 63.9898 151.4 63.9994C151.604 64.0095 151.8 63.9986 152.004 63.9986C152.168 63.9986 152.332 64.0002 152.49 63.9543C152.665 63.9033 152.817 63.9356 152.996 63.9396C153.042 63.9406 153.082 63.9256 153.127 63.9248C153.215 63.9234 153.301 63.9396 153.389 63.9396C153.443 63.9396 153.495 63.9283 153.548 63.9248C153.608 63.921 153.743 63.9246 153.784 63.8806C153.824 63.8385 153.978 63.8659 154.032 63.8659H154.222C154.294 63.8659 154.38 63.852 154.451 63.8691C154.538 63.8903 154.62 63.9479 154.703 63.9805C154.803 64.0197 154.891 64.1108 154.979 64.1722C155.081 64.2438 155.234 64.2804 155.321 64.3672M149.19 63.6503C149.387 63.6503 149.566 63.6917 149.759 63.7175C149.83 63.7269 149.922 63.7031 149.991 63.6905C150.067 63.6765 150.148 63.6566 150.226 63.6509C150.32 63.6439 150.4 63.6729 150.492 63.6729C150.545 63.6729 150.593 63.6842 150.646 63.6842C150.74 63.6842 150.831 63.6513 150.925 63.6503C151.02 63.6492 151.116 63.6455 151.208 63.6622C151.339 63.6859 151.447 63.7033 151.587 63.6729C151.74 63.6395 151.914 63.639 152.07 63.639C152.136 63.639 152.212 63.6272 152.276 63.6415C152.318 63.6507 152.364 63.6436 152.401 63.6616M155.606 64.5579C155.654 64.7867 155.745 64.904 155.97 64.904C156.066 64.904 156.213 64.9106 156.307 64.8837C156.355 64.87 156.221 64.7382 156.198 64.7309C156.128 64.7087 156.06 64.6882 155.991 64.6636C155.964 64.6542 155.887 64.654 155.957 64.654C156.032 64.654 156.101 64.6634 156.175 64.6839C156.269 64.7104 156.357 64.7774 156.452 64.7886C156.545 64.7995 156.574 64.9951 156.645 65.0344C156.694 65.0619 156.819 65.0387 156.875 65.0387C156.925 65.0387 157.082 64.9951 157.106 65.0194M160.703 66.1349C160.833 66.1349 161.038 66.1732 161.164 66.1199C161.24 66.0878 161.372 66.1156 161.453 66.1156C161.543 66.1156 161.64 66.1245 161.73 66.1113C161.896 66.0872 162.054 66.1239 162.203 66.0472C162.314 65.9899 162.428 65.8717 162.562 65.8656C162.752 65.8569 162.959 65.66 163.122 65.5686C163.233 65.5056 163.356 65.4411 163.388 65.3257M163.388 65.3257C163.394 65.3027 163.397 65.2777 163.395 65.2502C163.391 65.1882 163.291 65.2953 163.28 65.3036C163.192 65.3685 163.077 65.3946 162.987 65.4617C162.964 65.4785 162.942 65.4881 162.92 65.4984M163.388 65.3257C163.232 65.3875 163.072 65.4415 162.92 65.4984M163.388 65.3257C163.523 65.2719 163.655 65.2121 163.775 65.1391C163.877 65.0776 163.918 65.0658 163.799 64.9959C163.723 64.9513 163.768 64.8643 163.814 64.8228C163.822 64.8152 163.783 64.8695 163.775 64.8848C163.751 64.9338 163.776 64.9034 163.807 64.8805C163.879 64.8277 163.942 64.7207 164.03 64.8079C164.061 64.8389 164.069 64.8562 164.115 64.8698C164.196 64.8936 164.243 64.9786 164.318 65.0002C164.349 65.009 164.358 65.0508 164.38 65.0728C164.406 65.0984 164.445 65.1076 164.472 65.1348M162.92 65.4984C162.898 65.5087 162.877 65.5196 162.857 65.5387C162.81 65.5829 162.788 65.5487 162.876 65.5152C162.89 65.5095 162.905 65.504 162.92 65.4984ZM163.202 64.9202C163.23 64.9059 163.264 64.8974 163.286 64.8738C163.299 64.8604 163.312 64.8381 163.314 64.8194C163.316 64.7948 163.4 64.8045 163.412 64.8041C163.526 64.8008 163.641 64.803 163.755 64.803C163.828 64.803 163.895 64.799 163.953 64.7495C164.014 64.697 164.084 64.6579 164.154 64.6199C164.184 64.6039 164.219 64.6016 164.246 64.5817C164.269 64.5647 164.287 64.5472 164.315 64.5364C164.33 64.5304 164.351 64.5291 164.364 64.5205C164.382 64.5093 164.395 64.4902 164.412 64.4781C164.429 64.4663 164.453 64.4664 164.473 64.4667C164.546 64.4681 164.623 64.4959 164.697 64.5078C164.719 64.5114 164.74 64.5223 164.762 64.5256C164.793 64.5301 164.823 64.5148 164.852 64.5055C164.9 64.4897 164.951 64.4732 165.001 64.4642C165.082 64.4496 165.164 64.4555 165.245 64.439C165.308 64.4259 165.366 64.399 165.425 64.375C165.466 64.3586 165.51 64.3468 165.553 64.3388C165.676 64.316 165.797 64.3351 165.921 64.3295C165.996 64.3261 166.066 64.3322 166.139 64.3088C166.207 64.287 166.279 64.2545 166.352 64.259C166.443 64.2646 166.539 64.2861 166.631 64.2757C166.69 64.269 166.749 64.271 166.808 64.2604C166.827 64.2569 166.839 64.2516 166.854 64.2392C166.879 64.2188 166.905 64.2074 166.935 64.1967C166.957 64.189 166.975 64.1768 166.996 64.1667C167.027 64.1512 167.062 64.152 167.095 64.1452C167.159 64.1323 167.217 64.1178 167.282 64.1305C167.32 64.138 167.351 64.1319 167.39 64.1276C167.408 64.1257 167.445 64.1131 167.441 64.1305M164.796 65.0374C164.864 64.9965 164.92 64.9744 164.997 64.9598C165.069 64.9462 165.129 64.9234 165.188 64.8817C165.289 64.8101 165.412 64.7945 165.527 64.7611C165.584 64.7447 165.641 64.7396 165.699 64.7294C165.725 64.7248 165.752 64.7286 165.779 64.7215C165.818 64.7108 165.857 64.6997 165.896 64.6909C165.961 64.6767 166.025 64.6598 166.089 64.6456C166.122 64.6384 166.158 64.6378 166.191 64.6292C166.265 64.6093 166.338 64.5884 166.414 64.5737C166.449 64.567 166.476 64.5506 166.507 64.5338C166.535 64.5185 166.567 64.513 166.596 64.4999C166.647 64.4766 166.71 64.4902 166.764 64.4973C166.821 64.5049 166.875 64.5154 166.932 64.5188C166.985 64.522 167.037 64.5226 167.09 64.5284C167.109 64.5305 167.127 64.5378 167.145 64.542C167.152 64.5435 167.174 64.5393 167.162 64.5477C167.106 64.5879 167.032 64.5978 166.966 64.6094C166.902 64.6205 166.85 64.649 166.789 64.67C166.76 64.6803 166.729 64.6857 166.7 64.6988C166.673 64.7112 166.659 64.7371 166.642 64.76C166.632 64.7733 166.619 64.7819 166.604 64.7897C166.571 64.807 166.676 64.7731 166.713 64.7673C166.83 64.7488 166.951 64.7308 167.069 64.7237C167.142 64.7195 167.22 64.7219 167.29 64.696C167.325 64.6826 167.348 64.6516 167.379 64.6309C167.411 64.6099 167.454 64.6065 167.48 64.5768C167.483 64.5731 167.486 64.5693 167.489 64.5655M167.489 64.5655C167.497 64.5536 167.504 64.5419 167.518 64.5324C167.529 64.525 167.524 64.5354 167.52 64.5403C167.511 64.5504 167.5 64.5585 167.489 64.5655ZM167.489 64.5655C167.467 64.5786 167.441 64.5878 167.42 64.5992M166.004 65.0475C166.13 64.9928 166.261 64.9518 166.387 64.9001C166.438 64.8795 166.478 64.8433 166.532 64.8271C166.601 64.8062 166.68 64.8164 166.745 64.7866C166.857 64.7355 166.98 64.7203 167.098 64.6895C167.207 64.6611 167.302 64.6021 167.411 64.5737C167.446 64.5645 167.503 64.5601 167.534 64.5381C167.561 64.5185 167.591 64.5128 167.622 64.5013C167.662 64.486 167.675 64.4844 167.665 64.533M167.397 64.4704C167.613 64.3706 167.819 64.4369 168.046 64.4409C168.154 64.4429 168.246 64.3977 168.351 64.377C168.472 64.3534 168.652 64.3342 168.771 64.3689C168.868 64.3971 168.965 64.4261 169.06 64.459C169.105 64.4744 169.116 64.4762 169.075 64.5179C169.047 64.5456 169.018 64.5689 168.988 64.5884M168.988 64.5884C168.94 64.6196 168.887 64.641 168.826 64.6547C168.705 64.6819 168.574 64.7397 168.452 64.7489C168.313 64.7594 168.167 64.7608 168.028 64.7653C167.982 64.7668 167.928 64.7752 167.884 64.7874C167.846 64.798 167.798 64.7874 167.757 64.7906M168.988 64.5884H168.781C168.683 64.5884 168.582 64.5963 168.486 64.6105C168.381 64.6259 168.294 64.668 168.193 64.6916C168.122 64.7083 168.047 64.7033 167.976 64.7219C167.915 64.7378 167.856 64.7612 167.795 64.7768C167.788 64.7786 167.773 64.7843 167.757 64.7906M168.988 64.5884H169.313C169.462 64.5884 169.61 64.6062 169.76 64.6031C169.943 64.5994 170.125 64.5827 170.308 64.6105C170.548 64.6468 170.792 64.6202 171.033 64.6359C171.286 64.6524 171.54 64.6769 171.794 64.6769C171.972 64.6769 172.146 64.7139 172.322 64.7055C172.376 64.703 172.427 64.6916 172.481 64.6916C172.508 64.6916 172.522 64.7196 172.527 64.6777C172.558 64.46 172.543 64.2326 172.543 64.0133M167.757 64.7906C167.742 64.7918 167.727 64.795 167.714 64.8022C167.671 64.8263 167.718 64.8063 167.757 64.7906ZM179.798 58.7789C179.661 58.9653 179.675 59.1251 179.662 59.3457C179.651 59.532 179.585 59.7377 179.659 59.9142C179.705 60.0232 179.721 60.1398 179.757 60.2517C179.845 60.5307 179.871 60.7941 179.865 61.0889C179.856 61.4976 179.846 61.9047 179.793 62.3095C179.761 62.5537 179.781 62.8081 179.767 63.0541C179.759 63.2062 179.724 63.3467 179.724 63.5005C179.724 63.7279 179.705 63.9597 179.753 64.1821C179.775 64.2819 179.804 64.3943 179.845 64.4884C179.893 64.5993 179.948 64.6883 179.966 64.8104C179.986 64.9471 179.995 65.0821 180.019 65.2191C180.047 65.3841 180.08 65.5366 180.092 65.7049C180.111 65.9446 180.134 66.1843 180.137 66.425C180.138 66.5496 180.173 66.6501 180.193 66.769C180.198 66.7982 180.225 66.8749 180.201 66.8575C180.16 66.8277 180.133 66.7677 180.107 66.7264M177.483 60.0174C177.485 60.2126 177.493 60.3988 177.542 60.5884C177.579 60.7289 177.651 60.8389 177.709 60.9693C177.798 61.1655 177.819 61.3803 177.878 61.5853C177.898 61.6526 177.892 61.7109 177.881 61.7786C177.866 61.8675 177.882 61.9571 177.866 62.0457C177.827 62.2641 177.761 62.4754 177.712 62.6912C177.633 63.0361 177.599 63.3573 177.652 63.7086C177.673 63.8501 177.727 63.984 177.749 64.1255C177.768 64.2526 177.821 64.3713 177.854 64.495C177.875 64.5725 177.917 64.6768 177.879 64.7555C177.84 64.8369 177.735 64.8751 177.66 64.9128M167.662 65.3551C167.732 65.3673 168.176 65.3083 168.179 65.2666C168.182 65.2073 168.09 65.1961 168.054 65.1634C168.017 65.1307 167.924 65.0876 167.877 65.0741C167.841 65.064 167.898 64.9275 167.95 64.9275C168.009 64.9275 168.069 64.9671 168.129 64.975C168.21 64.9856 168.299 64.9876 168.379 65.008M168.379 65.008C168.385 65.0095 168.391 65.011 168.396 65.0127C168.454 65.0298 168.533 65.0717 168.591 65.075C168.623 65.0767 168.655 65.0881 168.686 65.0881C168.74 65.0881 168.671 65.0484 168.665 65.0373C168.652 65.015 168.64 64.956 168.624 64.935M168.379 65.008C168.379 64.9598 168.387 64.915 168.423 64.898C168.473 64.8742 168.529 64.8685 168.584 64.8685C168.641 64.8685 168.67 64.9305 168.716 64.9537C168.748 64.9697 168.775 64.9904 168.804 65.0097M168.379 65.008C168.379 65.0473 168.385 65.0888 168.385 65.1192M168.624 64.935C168.621 64.9303 168.617 64.9275 168.613 64.9275C168.603 64.9275 168.611 64.9307 168.624 64.935ZM168.624 64.935C168.646 64.942 168.684 64.9519 168.695 64.957C168.731 64.9742 168.767 64.9924 168.804 65.0097M168.804 65.0097C168.819 65.0169 168.834 65.024 168.849 65.0307C168.89 65.049 168.947 65.0769 168.975 65.1118C169.025 65.1745 168.871 65.0493 168.849 65.0373C168.833 65.029 168.818 65.0196 168.804 65.0097ZM168.842 64.8243C168.878 64.8518 168.914 64.901 168.954 64.9202C168.984 64.9344 169.019 64.9419 169.037 64.9718C169.059 65.0072 169.149 65.0235 169.188 65.0447C169.336 65.1256 169.482 65.118 169.646 65.1454C169.722 65.158 169.787 65.2155 169.866 65.238C169.902 65.2484 169.92 65.2872 169.965 65.2961C170.031 65.3094 170.092 65.3343 170.154 65.3551M169.181 64.7948C169.395 64.8716 169.52 65.1232 169.761 65.1618C169.892 65.1827 170.032 65.2301 170.163 65.274C170.25 65.3029 170.425 65.3253 170.435 65.4469C170.442 65.546 170.573 65.6138 170.646 65.6484C170.776 65.7102 170.886 65.707 171.024 65.709C171.116 65.7103 171.207 65.7385 171.298 65.7385C171.377 65.7385 171.45 65.7827 171.526 65.7827C171.662 65.7827 171.786 65.8387 171.924 65.8196C172.071 65.7992 172.201 65.66 172.276 65.5345C172.344 65.4209 172.428 65.3305 172.535 65.2486C172.709 65.1143 172.853 64.9492 173.035 64.8227C173.116 64.7654 173.155 64.6951 173.207 64.6179M170.434 65.1339C170.448 65.1702 170.476 65.2842 170.515 65.3101C170.54 65.3267 170.461 65.2845 170.434 65.2699C170.428 65.2665 170.383 65.234 170.41 65.2552C170.503 65.3273 170.609 65.3793 170.707 65.4428C170.803 65.5046 170.916 65.6135 171.031 65.6345C171.139 65.6542 171.25 65.6769 171.359 65.6975C171.468 65.7184 171.591 65.7269 171.703 65.7237C171.8 65.721 171.946 65.7276 172.035 65.6861C172.08 65.6652 172.13 65.667 172.178 65.6639C172.316 65.6552 172.455 65.6446 172.592 65.632C172.688 65.6232 172.767 65.5992 172.853 65.5542C172.974 65.4903 173.144 65.4793 173.251 65.3994M171.01 65.8859C171.141 65.7141 171.305 65.5665 171.455 65.4108C171.564 65.2977 171.676 65.1897 171.788 65.0782C171.855 65.0112 171.911 64.9616 171.942 64.8718C171.966 64.8012 171.953 64.7542 171.917 64.6981C171.847 64.5885 172.033 64.5234 172.086 64.4704C172.121 64.4351 172.16 64.3756 172.16 64.323C172.16 64.2476 172.135 64.1608 172.119 64.0871C172.104 64.0208 172.115 63.941 172.115 63.8732C172.115 63.8283 172.157 63.7614 172.182 63.7258C172.243 63.6378 172.278 63.5423 172.307 63.4399C172.35 63.2917 172.381 63.1126 172.381 62.9591C172.381 62.7955 172.4 62.6377 172.428 62.4766C172.461 62.2931 172.466 62.0996 172.514 61.9195C172.533 61.8463 172.56 61.7654 172.572 61.691C172.58 61.6375 172.587 61.5856 172.587 61.5313C172.587 61.4938 172.608 61.4841 172.617 61.4485C172.65 61.3174 172.69 61.1655 172.69 61.0316C172.69 60.8971 172.594 60.7606 172.618 60.6285C172.654 60.43 172.691 60.2734 172.658 60.0731C172.648 60.0118 172.617 59.9611 172.617 59.8987C172.617 59.8395 172.607 59.778 172.599 59.7193C172.589 59.6476 172.587 59.5792 172.587 59.5071C172.587 59.377 172.563 59.2395 172.536 59.1123C172.516 59.0204 172.528 58.9167 172.528 58.8231C172.528 58.6099 172.467 58.3567 172.536 58.1514C172.607 57.9372 172.598 57.7355 172.528 57.5255M171.909 57.1864C171.909 57.0533 171.91 56.9419 171.883 56.8178C171.872 56.7696 171.868 56.701 171.865 56.6523C171.854 56.5125 171.835 56.3717 171.835 56.2313C171.835 56.1779 171.845 55.9331 171.762 55.9331C171.715 55.9331 171.708 55.9869 171.699 56.0216C171.687 56.0702 171.712 56.1308 171.694 56.0953C171.661 56.0257 171.66 55.9369 171.632 55.8626C171.611 55.8061 171.542 55.7511 171.54 55.6906C171.539 55.6435 171.496 55.5091 171.496 55.5563C171.496 55.6367 171.515 55.7328 171.529 55.8119C171.534 55.8379 171.597 55.9293 171.537 55.8889C171.479 55.8491 171.518 55.7206 171.499 55.6562C171.484 55.6019 171.455 55.3138 171.4 55.3138C171.355 55.3138 171.434 55.3409 171.407 55.408C171.4 55.4245 171.337 55.2825 171.333 55.2638C171.313 55.1735 171.1 55.0005 171.188 55.0271C171.257 55.0478 171.15 54.9752 171.12 54.9517C171.091 54.9287 171.075 54.8941 171.046 54.8715C171.033 54.8605 170.996 54.8229 170.987 54.8043C170.959 54.7406 170.952 54.6678 170.914 54.6077C170.884 54.5616 170.847 54.526 170.811 54.4807C170.764 54.42 170.7 54.339 170.7 54.2595C170.7 54.2318 170.67 54.2136 170.67 54.1858C170.67 54.1443 170.666 54.1304 170.634 54.1047C170.621 54.0946 170.587 54.0675 170.583 54.0523C170.573 54.0168 170.567 53.9938 170.567 54.0457M172.779 57.1569C172.711 57.0056 172.658 56.8583 172.602 56.7031C172.562 56.593 172.496 56.4927 172.484 56.3738C172.463 56.1647 172.385 55.9767 172.322 55.7791C172.287 55.6692 172.24 55.5937 172.184 55.494C172.122 55.3839 172.076 55.2656 172.015 55.1549C171.926 54.9961 171.906 54.7834 171.895 54.6052C171.886 54.4438 171.844 54.2759 171.726 54.1571C171.594 54.0255 171.467 53.8998 171.347 53.7566C171.255 53.6467 171.161 53.5449 171.036 53.474C170.935 53.4168 170.747 53.4388 170.667 53.5182C170.604 53.5813 170.527 53.6275 170.457 53.6837C170.392 53.7365 170.376 53.5163 170.394 53.4592C170.411 53.4024 170.444 53.3154 170.486 53.2733C170.519 53.2399 170.531 53.1922 170.567 53.161C170.636 53.1025 170.727 53.1494 170.801 53.1594C170.904 53.173 170.995 53.1862 171.089 53.2348C171.32 53.3543 171.556 53.4281 171.809 53.4903C171.853 53.5011 171.978 53.5316 171.929 53.4346C171.895 53.3694 171.835 53.307 171.77 53.2733C171.639 53.2051 171.526 53.1161 171.427 53.007C171.341 52.9115 171.241 52.8322 171.15 52.7416C171.145 52.7366 171.122 52.7063 171.113 52.7138C171.092 52.7306 171.079 52.7956 171.073 52.8137C171.042 52.9234 171.021 53.0352 170.995 53.1463M171.467 55.0779C171.425 55.1466 171.378 55.2121 171.337 55.281C171.311 55.3244 171.296 55.3808 171.26 55.417C171.23 55.4471 171.157 55.462 171.142 55.4907M170.611 53.0578C170.591 53.0033 170.558 52.9271 170.575 52.8678L170.575 52.8663C170.582 52.8415 170.592 52.806 170.567 52.7891C170.547 52.7751 170.526 52.6446 170.522 52.6155C170.512 52.5412 170.501 52.4521 170.482 52.3795C170.466 52.316 170.417 52.2548 170.406 52.1944C170.392 52.12 170.351 52.0567 170.313 51.9929C170.278 51.9331 170.257 51.8693 170.22 51.811C170.19 51.7647 170.156 51.72 170.125 51.6751C170.103 51.644 170.087 51.6209 170.066 51.5866C170.006 51.4917 169.92 51.4033 169.832 51.3335C169.79 51.2997 169.745 51.1911 169.72 51.141L169.72 51.1398C169.688 51.0774 169.657 51.0153 169.609 50.964C169.467 50.8141 169.379 50.6189 169.237 50.4742C169.089 50.3237 168.961 50.1648 168.842 49.9941C168.801 49.9353 168.737 49.8736 168.683 49.8254C168.601 49.7521 168.515 49.6632 168.424 49.6018C168.368 49.5634 168.361 49.4834 168.319 49.4305C168.263 49.3592 168.144 49.317 168.105 49.2389M171.452 52.527C171.379 52.4028 171.351 52.2742 171.268 52.1584C171.188 52.0476 171.1 51.9422 171.021 51.8307C170.972 51.7616 170.937 51.685 170.892 51.6136C170.825 51.5086 170.731 51.4265 170.657 51.3269C170.613 51.2673 170.585 51.1982 170.538 51.141C170.488 51.0807 170.433 51.0257 170.385 50.9648C170.284 50.8377 170.162 50.7251 170.066 50.5954C169.95 50.4401 169.871 50.2523 169.74 50.1088C169.671 50.0333 169.595 49.9638 169.524 49.8909C169.391 49.7563 169.252 49.6861 169.08 49.6075C168.932 49.5401 168.752 49.4394 168.649 49.311C168.63 49.2873 168.621 49.2241 168.621 49.2241M170.213 51.5096C170.195 51.5889 170.19 51.7866 170.095 51.834M167.839 49.4748C167.716 49.548 167.577 49.5991 167.515 49.7336C167.504 49.7575 167.522 49.7716 167.552 49.7795M167.552 49.7795C167.623 49.7977 167.761 49.7844 167.789 49.7844C167.791 49.7844 167.794 49.7844 167.796 49.7843M167.552 49.7795C167.515 49.7912 167.479 49.806 167.44 49.823M167.552 49.7795C167.595 49.7664 167.639 49.7573 167.69 49.7541C167.746 49.7507 167.79 49.7121 167.846 49.7107C167.906 49.7092 167.998 49.7079 168.048 49.7468C168.086 49.7758 167.99 49.7641 167.918 49.7579M167.796 49.7843C167.828 49.783 167.855 49.7734 167.884 49.7651M167.796 49.7843C167.801 49.7833 167.805 49.7823 167.81 49.7812C167.826 49.7772 167.858 49.7707 167.884 49.7651M167.796 49.7843C167.679 49.8094 167.557 49.8024 167.44 49.823M167.884 49.7651C167.894 49.7623 167.904 49.7597 167.914 49.7575M167.884 49.7651C167.897 49.7623 167.909 49.7598 167.918 49.7579M167.914 49.7575C167.917 49.7569 167.921 49.7563 167.924 49.7558C167.937 49.7535 167.932 49.7549 167.918 49.7579M167.914 49.7575C167.915 49.7577 167.917 49.7578 167.918 49.7579M167.914 49.7575C167.897 49.7561 167.881 49.7549 167.869 49.7549M167.44 49.823C167.408 49.8285 167.377 49.836 167.346 49.8467C167.252 49.8794 167.152 49.8767 167.06 49.9171C167.05 49.9213 166.926 49.9817 166.938 49.9876C167.006 50.0195 167.131 49.9501 167.19 49.9245C167.259 49.8945 167.331 49.8705 167.4 49.8401C167.414 49.8342 167.427 49.8285 167.44 49.823ZM166.689 49.7992C166.385 50.025 166.002 50.1826 165.619 50.1826C165.472 50.1826 165.32 50.191 165.172 50.1817C165.006 50.1714 164.922 50.2282 164.802 50.3448C164.733 50.4121 164.635 50.3866 164.56 50.4267C164.485 50.467 164.386 50.4781 164.304 50.5037C164.233 50.5256 164.152 50.492 164.08 50.5143C164 50.5395 164.044 50.5087 164.013 50.4414C163.992 50.396 164.012 50.3524 164.024 50.3087C164.04 50.2451 164.033 50.1803 164.051 50.117C164.063 50.0726 164.14 50.0072 164.186 50.0056C164.26 50.0031 164.392 49.9302 164.315 50.0646M164.094 50.389C163.955 50.4109 163.807 50.4606 163.665 50.4627C163.619 50.4634 163.561 50.4527 163.516 50.466C163.374 50.5079 163.239 50.5217 163.09 50.5217C162.964 50.5217 162.84 50.5412 162.716 50.5545C162.563 50.5709 162.435 50.5822 162.28 50.5667C162.164 50.5552 162.047 50.5771 161.934 50.552C161.843 50.5318 161.749 50.5217 161.655 50.5217H161.286C161.12 50.5217 160.958 50.5453 160.795 50.5512C160.7 50.5545 160.614 50.5652 160.523 50.5839C160.402 50.6087 160.288 50.5807 160.172 50.5807C160.103 50.5807 160.094 50.5004 160.025 50.4922C160.003 50.4897 159.978 50.4507 159.962 50.4365C159.936 50.4126 159.876 50.4087 159.841 50.389C159.693 50.3044 159.571 50.2034 159.391 50.1834C159.369 50.181 159.238 50.2038 159.229 50.1744C159.222 50.1489 159.201 50.1525 159.184 50.131C159.157 50.0976 159.16 50.1579 159.14 50.1678M159.125 50.0793C159.038 50.0156 158.982 49.986 158.964 49.8721C158.948 49.7734 158.933 49.6582 158.933 49.56C158.933 49.4808 158.909 49.3804 158.867 49.3126C158.817 49.2319 158.826 49.1466 158.812 49.0554C158.786 48.8878 158.723 48.731 158.701 48.5606C158.687 48.4576 158.639 48.3555 158.639 48.2518C158.639 48.1933 158.609 48.1122 158.591 48.056C158.558 47.9517 158.56 47.8432 158.529 47.7357C158.503 47.6473 158.464 47.5505 158.462 47.458C158.46 47.3916 158.442 47.318 158.424 47.2532C158.392 47.1385 158.402 47.0176 158.37 46.9026C158.299 46.646 158.276 46.3875 158.222 46.131C158.208 46.0633 158.181 45.9972 158.181 45.9286C158.181 45.8734 158.191 45.808 158.167 45.7591M160.01 50.0351C159.886 49.8685 159.806 49.6831 159.682 49.519C159.573 49.3752 159.512 49.2543 159.495 49.0758C159.479 48.9184 159.508 48.7614 159.508 48.6048C159.508 48.3793 159.453 48.1975 159.364 47.9904C159.282 47.7986 159.194 47.596 159.151 47.3925C159.105 47.1721 159.095 46.9486 159.08 46.7232C159.073 46.6133 159.034 46.5019 159.015 46.3931C158.997 46.2831 158.994 46.172 158.97 46.063C158.946 45.9536 158.908 45.8436 158.892 45.7328C158.88 45.6386 158.86 45.4494 158.86 45.4494M164.153 49.7107C163.943 49.8498 163.693 49.959 163.442 49.9974C163.116 50.0473 162.778 49.9949 162.456 50.0531C162.176 50.1037 161.884 50.0793 161.599 50.0793H160.888C160.766 50.0793 160.569 50.0401 160.464 50.1088C160.329 50.197 160.141 50.3698 159.966 50.3595C159.864 50.3535 159.713 50.4714 159.635 50.4046C159.581 50.3589 159.585 50.296 159.596 50.235C159.607 50.1727 159.612 50.1143 159.612 50.0499C159.612 49.833 159.721 49.6774 159.831 49.4969C159.853 49.4617 159.857 49.4085 159.866 49.3683C159.88 49.3067 159.91 49.2501 159.921 49.1873C159.96 48.9663 160.006 48.7492 159.994 48.5229C159.989 48.4222 159.982 48.3228 159.98 48.2215C159.979 48.1293 159.939 48.0537 159.922 47.9651C159.901 47.8545 159.851 47.7958 159.815 47.6939C159.71 47.4011 159.727 47.0807 159.638 46.7847C159.606 46.6803 159.53 46.581 159.511 46.475C159.499 46.4099 159.505 46.3259 159.512 46.2604L159.513 46.2535C159.525 46.1379 159.538 46.0213 159.538 45.9049C159.538 45.8096 159.566 45.7202 159.567 45.6264C159.57 45.4766 159.565 45.347 159.605 45.202C159.621 45.1435 159.618 45.0812 159.634 45.021C159.657 44.9343 159.69 44.8465 159.703 44.7581C159.73 44.5771 159.786 44.4014 159.8 44.219C159.813 44.0532 159.801 43.8817 159.82 43.7169C159.841 43.5315 159.987 43.3706 160.04 43.1943C160.07 43.093 160.155 42.9872 160.227 42.9158C160.376 42.7663 160.496 42.6121 160.616 42.4398C160.754 42.2412 160.892 42.0032 161.063 41.832C161.222 41.6737 161.335 41.4782 161.47 41.2987C161.583 41.1502 161.705 41.0366 161.845 40.9162C161.92 40.8516 162.004 40.7943 162.074 40.7245C162.157 40.6412 162.218 40.5478 162.306 40.4673C162.364 40.4139 162.406 40.3374 162.457 40.2772C162.532 40.189 162.612 40.1051 162.693 40.0233M158.329 45.5231C158.369 45.4654 158.392 45.4043 158.433 45.3511C158.463 45.3117 158.521 45.2581 158.521 45.2053C158.521 45.1208 158.558 45.0523 158.594 44.9776C158.642 44.8795 158.699 44.7787 158.763 44.6909C158.785 44.6611 158.8 44.6196 158.812 44.5772M158.812 44.5772C158.824 44.5364 158.833 44.4946 158.842 44.4615C158.859 44.3949 158.848 44.3304 158.861 44.2633C158.863 44.2515 158.874 44.188 158.874 44.2141C158.874 44.3065 158.882 44.4 158.848 44.4877C158.841 44.5069 158.83 44.5482 158.812 44.5772ZM158.812 44.5772C158.803 44.593 158.792 44.6052 158.779 44.6081C158.748 44.6149 158.721 44.5942 158.691 44.5942C158.645 44.5942 158.582 44.5861 158.565 44.6384M159.508 43.3409C159.383 43.32 159.344 43.41 159.269 43.4851C159.2 43.5543 159.134 43.6567 159.099 43.7505C159.071 43.8254 159.002 43.8874 158.981 43.9667C158.958 44.0518 158.925 44.1296 158.889 44.2108M161.219 41.1881L161.209 41.1957C161.055 41.3185 160.926 41.4211 160.799 41.5707C160.7 41.6871 160.559 41.7591 160.441 41.8516C160.341 41.9295 160.274 42.0512 160.179 42.1383C160.08 42.23 159.964 42.3267 159.854 42.4054C159.736 42.4899 159.672 42.6185 159.564 42.7068C159.487 42.7703 159.436 42.8242 159.397 42.9125C159.352 43.0156 159.325 43.1302 159.302 43.2409C159.278 43.3546 159.309 43.5068 159.243 43.6063M161.912 40.4951C161.838 40.6349 161.718 40.731 161.602 40.8343C161.501 40.9247 161.369 40.9454 161.263 41.0227C161.16 41.0981 161.059 41.1779 160.957 41.2537C160.911 41.2879 160.878 41.3236 160.825 41.3511C160.741 41.3942 160.619 41.4184 160.55 41.4838C160.404 41.6208 160.239 41.7786 160.151 41.9622C160.091 42.0879 160.065 42.2269 160.002 42.353C159.975 42.4054 159.936 42.4533 159.936 42.5152M167.132 40.3477C167.07 40.2705 166.987 40.2338 166.912 40.1724C166.896 40.1588 166.884 40.1465 166.875 40.1342M166.875 40.1342C166.855 40.1062 166.848 40.0786 166.828 40.038C166.813 40.0076 166.792 39.9811 166.775 39.9526M166.875 40.1342C166.897 40.1012 166.921 40.0694 166.946 40.0394M166.875 40.1342C166.867 40.1462 166.859 40.1584 166.851 40.1707M166.775 39.9526C166.764 39.9338 166.755 39.9142 166.751 39.892M166.775 39.9526C166.745 39.929 166.713 39.9014 166.694 39.8734M166.775 39.9526C166.804 39.9748 166.832 39.9934 166.849 40.0052C166.876 40.0244 166.91 40.0345 166.946 40.0394M166.751 39.892C166.75 39.8857 166.749 39.8792 166.748 39.8725C166.748 39.8718 166.748 39.871 166.748 39.8702M166.751 39.892C166.79 39.9065 166.825 39.9244 166.851 39.9495C166.88 39.9768 166.922 40.0021 166.964 40.0185M166.751 39.892C166.733 39.8852 166.714 39.8791 166.694 39.8734M166.748 39.8702C166.745 39.842 166.729 39.7916 166.704 39.7759C166.678 39.7596 166.679 39.7857 166.675 39.816C166.674 39.8232 166.675 39.8305 166.677 39.838M166.748 39.8702C166.733 39.8648 166.718 39.8586 166.702 39.8512C166.694 39.8472 166.686 39.8428 166.677 39.838M166.748 39.8702C166.8 39.8888 166.852 39.8971 166.911 39.9045C166.96 39.9105 167.093 39.905 167.055 39.9348C167.022 39.9601 166.992 39.9883 166.964 40.0185M166.677 39.838C166.68 39.8497 166.686 39.8616 166.694 39.8734M166.677 39.838C166.587 39.7874 166.484 39.6979 166.383 39.6907C166.37 39.6897 166.401 39.7344 166.403 39.7366C166.455 39.8196 166.582 39.8406 166.694 39.8734M166.946 40.0394C167.011 40.0482 167.084 40.0404 167.145 40.0384M166.946 40.0394C166.952 40.0323 166.958 40.0253 166.964 40.0185M167.145 40.0384C167.153 40.0382 167.161 40.038 167.169 40.038C167.17 40.038 167.16 40.0383 167.145 40.0384ZM167.145 40.0384C167.109 40.0388 167.043 40.0389 167.02 40.0347C167.002 40.0316 166.983 40.0259 166.964 40.0185M167.264 40.5541C167.142 40.5033 167.029 40.4643 166.9 40.4435C166.785 40.425 166.664 40.4384 166.548 40.4353C166.512 40.4344 166.414 40.4432 166.385 40.4099C166.289 40.2984 166.299 40.1283 166.211 40.011C166.167 39.9526 166.181 39.913 166.172 39.8472C166.163 39.7748 166.165 39.7603 166.199 39.6907C166.228 39.6345 166.206 39.6073 166.203 39.5514C166.197 39.4471 166.112 39.4777 166.026 39.4777C165.974 39.4777 165.91 39.4904 165.872 39.449C165.841 39.4157 165.807 39.3495 165.768 39.3319C165.719 39.3102 165.598 39.3219 165.547 39.3311C165.479 39.3435 165.413 39.345 165.342 39.345H165.097C165.078 39.345 165.038 39.3318 165.026 39.3155C165.009 39.2909 164.962 39.3008 164.935 39.3008M166.394 40.1412C166.445 40.058 166.49 40.0083 166.439 39.925C166.417 39.8893 166.424 39.8422 166.424 39.8021C166.424 39.7143 166.424 39.6399 166.358 39.5736C166.261 39.4774 166.105 39.5085 165.99 39.4621C165.912 39.4312 165.89 39.3303 165.805 39.3303M164.345 39.8021C164.353 39.6759 164.387 39.6037 164.26 39.5777C164.2 39.5654 164.137 39.5386 164.076 39.5367C163.972 39.5334 163.867 39.5367 163.763 39.5367C163.675 39.5367 163.564 39.5391 163.481 39.5695C163.424 39.59 163.376 39.6257 163.318 39.6432C163.289 39.6518 163.26 39.6498 163.236 39.6661C163.208 39.6848 163.144 39.686 163.11 39.6989C163.069 39.7142 163.015 39.7384 162.972 39.7423C162.825 39.7557 162.64 39.7535 162.503 39.8095C162.441 39.8351 162.382 39.867 162.317 39.8898C162.263 39.9092 162.14 39.9222 162.107 39.979C162.007 40.1508 161.821 40.2072 161.661 40.3296C161.542 40.4208 161.42 40.4846 161.345 40.6139C161.333 40.6345 161.327 40.6587 161.314 40.6786C161.299 40.7023 161.273 40.6947 161.26 40.7163C161.244 40.7425 161.202 40.818 161.182 40.8343C161.15 40.8596 161.122 40.8888 161.087 40.9153C161.07 40.9281 161.061 40.9435 161.049 40.9596C161.028 40.9853 161.005 40.9694 160.986 40.985C160.95 41.0143 160.903 41.061 160.858 41.071C160.76 41.0928 160.673 41.2031 160.6 41.2619M164.183 39.4482C164.212 39.4111 164.256 39.3914 164.23 39.345C164.219 39.3245 164.17 39.2953 164.147 39.2893C164.022 39.2573 163.871 39.3274 163.744 39.3303C163.631 39.3328 163.549 39.3855 163.442 39.3893C163.313 39.3939 163.185 39.404 163.055 39.404C163.03 39.404 163.001 39.4003 162.974 39.3997M162.974 39.3997C162.956 39.3994 162.938 39.4004 162.923 39.4048C162.907 39.4094 162.95 39.406 162.974 39.3997ZM162.974 39.3997C162.978 39.3988 162.981 39.3977 162.983 39.3966C163.045 39.3703 163.112 39.3739 163.173 39.3516C163.187 39.3464 163.265 39.3186 163.209 39.3155C163.133 39.3113 163.053 39.3423 162.985 39.345C162.958 39.3461 162.92 39.3374 162.897 39.3516C162.868 39.3686 162.821 39.4123 162.79 39.4179C162.705 39.4334 162.645 39.5458 162.568 39.5883C162.526 39.6114 162.436 39.6224 162.413 39.6629C162.399 39.687 162.371 39.6859 162.354 39.7063C162.346 39.7169 162.319 39.7493 162.307 39.7579C162.25 39.7975 162.191 39.8188 162.133 39.8496C162.082 39.8766 162.062 39.9269 162.015 39.9569C161.966 39.9883 161.931 40.0482 161.89 40.0896C161.842 40.1379 161.827 40.1799 161.794 40.2297M163.726 39.6694C163.649 39.6348 163.65 39.5671 163.593 39.5334C163.548 39.5072 163.513 39.455 163.472 39.422C163.44 39.3971 163.346 39.3663 163.401 39.3008C163.424 39.2735 163.449 39.2633 163.478 39.2418C163.488 39.2346 163.598 39.1808 163.59 39.1713C163.56 39.1385 163.347 39.1975 163.301 39.1975L163.3 39.1975C163.256 39.1975 163.186 39.1975 163.15 39.227C163.115 39.2571 163.037 39.2563 162.992 39.268C162.971 39.2734 162.933 39.2305 162.929 39.2516C162.923 39.2871 162.922 39.3239 162.915 39.3597M157.626 83.7641C157.663 83.7561 157.698 83.7403 157.735 83.7379C157.762 83.7362 157.777 83.734 157.802 83.7243C157.867 83.6992 157.921 83.711 157.987 83.711C158.03 83.711 158.078 83.7167 158.121 83.7095C158.225 83.6922 158.325 83.6538 158.431 83.6456C158.568 83.6351 158.707 83.644 158.844 83.6375C158.923 83.6337 159.001 83.6204 159.081 83.6176C159.169 83.6144 159.258 83.613 159.345 83.6047C159.424 83.5972 159.503 83.596 159.582 83.6017C159.643 83.6062 159.711 83.6192 159.773 83.6098C159.801 83.6055 159.824 83.5929 159.853 83.5917C159.907 83.5896 159.963 83.5896 160.017 83.5928C160.123 83.5992 160.223 83.6119 160.33 83.6061C160.508 83.5966 160.687 83.5949 160.865 83.591C160.923 83.5897 160.976 83.5804 161.032 83.5663C161.081 83.554 161.13 83.5693 161.178 83.5711C161.306 83.5757 161.429 83.5826 161.557 83.6006C161.592 83.6056 161.618 83.5942 161.654 83.5928C161.753 83.5891 161.852 83.6012 161.951 83.5976C161.977 83.5967 162.001 83.59 162.026 83.5862C162.09 83.5767 162.157 83.5934 162.218 83.6113M162.564 83.6778C162.703 83.7355 162.864 83.7841 163.016 83.7841C163.16 83.7841 163.304 83.757 163.444 83.7272C163.475 83.7206 163.506 83.7137 163.537 83.7058C163.582 83.6944 163.627 83.7015 163.673 83.6973C163.716 83.6935 163.754 83.6838 163.798 83.6859C163.876 83.6896 163.951 83.7052 164.028 83.7132C164.08 83.7186 164.129 83.7087 164.18 83.7114C164.208 83.7128 164.235 83.7176 164.263 83.7176C164.344 83.7176 164.423 83.7406 164.503 83.7494C164.559 83.7556 164.625 83.7474 164.68 83.7361C164.74 83.7239 164.792 83.7274 164.851 83.704C164.998 83.6449 165.162 83.6409 165.307 83.5722C165.335 83.5591 165.365 83.5573 165.393 83.5449C165.433 83.5267 165.468 83.4977 165.509 83.4799C165.535 83.4688 165.549 83.4569 165.572 83.4419C165.612 83.4159 165.658 83.4097 165.701 83.3917C165.778 83.3593 165.871 83.3461 165.932 83.2872C165.996 83.2247 166.061 83.1941 166.141 83.1565C166.194 83.132 166.236 83.1161 166.296 83.1199C166.331 83.1221 166.32 83.1687 166.318 83.1941C166.318 83.2067 166.302 83.2518 166.288 83.2706M166.288 83.2706C166.284 83.2758 166.28 83.2791 166.276 83.2791C166.27 83.2791 166.279 83.2747 166.288 83.2706ZM166.288 83.2706C166.291 83.2688 166.295 83.2671 166.297 83.2658C166.317 83.2536 166.341 83.2431 166.363 83.2362C166.409 83.2216 166.502 83.1712 166.551 83.1875C166.573 83.1947 166.52 83.2336 166.516 83.2366C166.458 83.2804 166.393 83.3199 166.329 83.3547C166.32 83.3599 166.261 83.3807 166.259 83.392C166.256 83.4053 166.253 83.4071 166.27 83.3979C166.302 83.3796 166.339 83.3729 166.372 83.3555C166.435 83.3222 166.516 83.3176 166.583 83.2923C166.665 83.2618 166.754 83.2576 166.835 83.2259C166.872 83.2114 166.908 83.2075 166.948 83.2063C166.994 83.205 167.037 83.196 167.083 83.1919C167.124 83.1882 167.156 83.1667 167.193 83.1491C167.234 83.1288 167.284 83.1201 167.328 83.1063C167.382 83.0895 167.436 83.0905 167.491 83.0826C167.512 83.0795 167.533 83.0734 167.554 83.0668C167.584 83.0573 167.615 83.0611 167.646 83.0568C167.769 83.0399 167.875 82.9707 167.985 82.9202C168.031 82.8993 168.078 82.8809 168.125 82.8626C168.224 82.8238 168.324 82.7869 168.419 82.7378C168.438 82.7279 168.543 82.6516 168.551 82.6677" stroke="#262626" stroke-linecap="round"/>
<path d="M168.832 82.9765C168.899 82.9765 169.103 82.9714 169.035 82.9714M169.907 82.3855C169.978 82.4338 170.066 82.457 170.148 82.48C170.194 82.493 170.244 82.4961 170.289 82.5103C170.339 82.5258 170.391 82.5054 170.442 82.5027C170.456 82.5019 170.537 82.4892 170.508 82.518M171.506 82.0798C171.543 82.0669 171.57 82.0413 171.605 82.0266C171.636 82.0139 171.67 82.0109 171.699 81.9955C171.709 81.9905 171.715 81.9811 171.726 81.9782C171.752 81.9712 171.779 81.9728 171.806 81.9689C171.823 81.9663 171.828 81.9685 171.826 81.9747M171.826 81.9747C171.825 81.9805 171.817 81.99 171.809 82.0023C171.807 82.0059 171.805 82.0096 171.803 82.0132M171.826 81.9747C171.805 81.9803 171.783 81.9853 171.765 81.9983C171.733 82.0219 171.7 82.0358 171.67 82.064C171.662 82.0711 171.626 82.09 171.637 82.09C171.649 82.09 171.664 82.0878 171.676 82.0911C171.701 82.0984 171.727 82.101 171.752 82.1104C171.765 82.1154 171.776 82.1181 171.788 82.1104C171.835 82.0808 171.873 82.047 171.914 82.0088C171.92 82.0033 171.976 81.9544 171.945 81.9703C171.916 81.9846 171.885 81.9919 171.854 81.9983C171.837 82.0018 171.82 82.007 171.803 82.0132M171.826 81.9747C171.835 81.9723 171.844 81.9699 171.853 81.9666C171.921 81.9412 171.991 81.9216 172.056 81.8891C172.109 81.8624 172.162 81.8377 172.215 81.8095C172.265 81.7825 172.317 81.7594 172.367 81.7334C172.392 81.7207 172.417 81.7087 172.443 81.6977C172.478 81.6826 172.507 81.6551 172.542 81.6388C172.566 81.6277 172.574 81.613 172.592 81.5961C172.617 81.5732 172.655 81.564 172.683 81.5451C172.713 81.5249 172.746 81.5059 172.78 81.4914C172.782 81.4904 172.812 81.4746 172.815 81.4798C172.819 81.4881 172.784 81.52 172.78 81.5242C172.736 81.5701 172.68 81.6049 172.627 81.6383L172.626 81.6388C172.602 81.6541 172.548 81.6661 172.533 81.6929C172.525 81.7064 172.519 81.7254 172.543 81.7107C172.562 81.6987 172.58 81.685 172.602 81.6782C172.625 81.6712 172.648 81.6703 172.67 81.662C172.709 81.6479 172.75 81.6372 172.79 81.6275C172.808 81.6233 172.82 81.6116 172.836 81.604C172.856 81.5948 172.876 81.5883 172.896 81.5794C172.926 81.5657 172.955 81.5501 172.984 81.5347C173.01 81.521 173.038 81.517 173.058 81.4965C173.075 81.4797 173.1 81.4753 173.119 81.4633C173.138 81.4516 173.154 81.4366 173.175 81.4265C173.204 81.4119 173.24 81.4059 173.267 81.3864C173.294 81.3668 173.321 81.351 173.349 81.3331C173.372 81.3186 173.386 81.3112 173.404 81.2929C173.421 81.2758 173.44 81.2604 173.459 81.246C173.497 81.2181 173.541 81.2078 173.582 81.1854C173.609 81.1705 173.636 81.1559 173.663 81.1412C173.673 81.1355 173.692 81.1265 173.705 81.1293C173.714 81.1315 173.631 81.2227 173.625 81.2287C173.616 81.237 173.608 81.2443 173.599 81.2507M171.803 82.0132C171.795 82.027 171.789 82.0391 171.771 82.0391C171.759 82.0391 171.739 82.0469 171.731 82.0566C171.725 82.064 171.66 82.0847 171.688 82.0691C171.724 82.0488 171.763 82.0279 171.803 82.0132ZM173.599 81.2507C173.57 81.2727 173.54 81.2859 173.506 81.3051C173.482 81.3191 173.538 81.2784 173.545 81.2748C173.562 81.2666 173.581 81.2593 173.599 81.2507ZM173.599 81.2507C173.617 81.2423 173.634 81.2327 173.647 81.2199C173.676 81.1932 173.722 81.1915 173.758 81.182C173.799 81.1714 173.838 81.1517 173.877 81.1373C173.935 81.1158 173.974 81.0841 174.025 81.0509C174.049 81.0355 174.073 81.0198 174.097 81.0048C174.133 80.9824 174.174 80.9812 174.213 80.9691C174.27 80.9517 174.31 80.9057 174.348 80.8621C174.366 80.8414 174.383 80.8335 174.409 80.8225C174.463 80.7999 174.423 80.8847 174.416 80.908M174.538 80.8774C174.589 80.8514 174.639 80.8296 174.693 80.8123C174.738 80.7978 174.773 80.7704 174.811 80.741C174.83 80.7257 174.856 80.6902 174.88 80.6849C174.929 80.6746 174.877 80.7116 174.864 80.7246M179.949 78.4268C179.996 78.4141 180.049 78.4115 180.098 78.4115C180.118 78.4115 180.133 78.4033 180.153 78.3985C180.242 78.3766 180.329 78.3685 180.411 78.3246C180.439 78.3098 180.46 78.2794 180.481 78.2567C180.495 78.2408 180.514 78.2292 180.514 78.2057C180.514 78.1919 180.514 78.1599 180.522 78.1491C180.523 78.1484 180.523 78.1477 180.524 78.1471M180.524 78.1471C180.527 78.144 180.53 78.1425 180.535 78.1403C180.54 78.1374 180.532 78.1418 180.524 78.1471ZM180.524 78.1471C180.518 78.1506 180.512 78.1544 180.509 78.1567M180.25 70.5912C179.976 69.7001 179.703 68.7619 179.594 67.8392C179.54 67.3793 179.611 66.9092 179.579 66.4478C179.55 66.0271 179.422 65.5979 179.415 65.18C179.41 64.8859 179.385 64.5973 179.356 64.305C179.337 64.1131 179.213 63.9444 179.195 63.7453C179.113 62.8416 178.937 61.914 178.97 61.0057C178.976 60.8376 179.061 60.6805 179.078 60.514C179.1 60.2952 179.081 60.0661 179.081 59.8461C179.081 59.4455 179.248 59.2497 178.704 59.237C178.291 59.2274 177.885 59.3562 177.467 59.3483C177.218 59.3436 176.982 59.2085 176.771 59.0948C176.375 58.8814 175.976 58.6804 175.497 58.6804C175.168 58.6804 174.842 58.7884 174.798 59.1813C174.796 59.2018 174.794 59.2243 174.793 59.2483M174.793 59.2483C174.778 59.4732 174.795 59.8245 174.795 59.8245C174.795 59.8245 174.853 59.4795 174.793 59.2483ZM174.793 59.2483C174.777 59.1858 174.752 59.1316 174.715 59.0948C174.531 58.9105 174.406 58.7552 174.406 59.1257M171.588 65.0386C171.689 64.833 171.779 64.7126 171.707 64.5044C171.673 64.407 171.588 64.3478 171.588 64.2415C171.588 64.143 171.624 64.0475 171.624 63.9541C171.624 63.913 171.439 64.077 171.414 64.077C171.401 64.077 171.451 63.8681 171.453 63.8313C171.455 63.7817 171.514 63.7639 171.53 63.7201C171.547 63.6722 171.558 63.6129 171.578 63.5684C171.622 63.4716 171.605 63.3967 171.627 63.2981C171.648 63.206 171.695 63.1238 171.726 63.0342C171.796 62.8341 171.895 62.6485 171.895 62.4327C171.895 62.4093 171.9 62.3096 171.891 62.3269C171.834 62.434 171.793 62.5482 171.744 62.6592C171.703 62.7492 171.737 62.4562 171.776 62.3654C171.8 62.3082 171.815 62.2165 171.818 62.1538C171.823 62.0696 171.846 62.0039 171.858 61.923C171.887 61.7155 171.914 61.5235 171.914 61.3119C171.914 61.1536 171.988 60.9818 171.952 60.8172C171.935 60.7419 171.895 60.6638 171.895 60.5854C171.895 60.5071 171.867 60.3438 171.91 60.2841C171.957 60.22 171.916 60.092 171.949 60.0191C171.971 59.9687 171.97 59.7884 171.943 59.7402C171.907 59.6744 171.895 59.4916 171.895 59.4133V59.1579C171.895 59.0387 171.881 58.9277 171.876 58.8118C171.871 58.6861 171.736 58.5064 171.809 58.3748C171.839 58.3201 171.818 58.207 171.818 58.144C171.818 58.0438 171.834 57.926 171.799 57.8309C171.746 57.6889 171.787 57.5886 171.891 57.4848C171.915 57.4607 172 57.3562 172.038 57.395C172.086 57.4429 172.117 57.5788 172.135 57.6429C172.162 57.7411 172.172 57.8505 172.183 57.9517C172.19 58.023 172.189 58.0925 172.199 58.1643C172.208 58.2342 172.151 58.2579 172.126 58.3075M172.234 60.5351C172.224 60.4933 172.218 60.47 172.195 60.434C172.188 60.424 172.175 60.4157 172.166 60.4084C172.156 60.4003 172.154 60.4057 172.152 60.4179" stroke="#262626" stroke-width="0.5" stroke-linecap="round"/>
<path d="M181.029 69.4781C181.112 68.7054 180.947 68.0871 180.819 67.3322C180.715 66.7172 180.792 66.0547 180.664 65.4522C180.566 64.9903 180.436 64.6119 180.225 64.1906C179.996 63.7318 179.542 63.1682 179.526 62.6322C179.499 61.6661 179.236 60.7296 179.248 59.7565C179.253 59.4065 179.32 59.0274 179.372 58.6805C179.437 58.2409 179.209 58.4846 178.948 58.6774C178.578 58.952 178.419 59.4733 178.107 59.8153C177.753 60.2035 177.523 60.5017 177.523 61.0459C177.523 61.4203 177.478 61.8283 177.557 62.1962C177.607 62.4316 177.645 62.6967 177.727 62.9229C177.821 63.1835 178.047 63.3872 178.191 63.6217C178.382 63.9331 178.547 64.262 178.747 64.5679C179.026 64.9939 179.294 65.3647 179.304 65.8913C179.331 67.2994 177.977 65.8932 177.575 65.4708C177.147 65.0196 176.762 64.5611 176.357 64.0917C176.038 63.7226 175.623 63.4322 175.383 63.0002C175.231 62.727 175.023 62.5034 174.857 62.2426C174.7 61.9945 174.607 61.5842 174.561 61.2964C174.511 60.9855 174.511 60.6726 174.449 60.3626C174.418 60.208 174.45 59.9904 174.394 59.8493C174.296 59.6049 174.308 59.1293 174.356 58.8753C174.416 58.5652 174.581 58.1963 174.709 57.9044C174.76 57.7871 174.905 57.1976 174.684 57.3447" stroke="#262626" stroke-width="4" stroke-linecap="round"/>
<path d="M147 133L145.841 127.496L144.422 126.78L144.658 124.414L144.895 125.601H145.368L144.422 121.813L144.895 120.861L144.422 118.967L144.658 115.894L144.895 118.024H145.368L144.895 115.659L145.368 109.505L146.787 105.236L156.747 87.7249L157.22 84.172H165.043L169.546 82.9846L168.827 82.749V82.2777L170.255 82.749L170.965 82.5133L170.255 82.2777V81.8064L171.674 82.2777L174.994 80.8547V79.9121L175.94 80.3834L179.26 78.4891C180.588 78.8335 180.98 78.3622 180.443 77.0661L185.892 75.1719L187.556 73.5132V68.7821L188.029 68.3107L187.793 65.7004L187.556 66.4165H187.083L187.556 64.9935L187.32 63.8152L187.083 64.5222H186.601L187.083 62.6279H186.128L186.601 61.6762H185.655L186.128 60.2623H185.182L185.655 59.3106L176.177 48.8966L174.758 46.0597L173.33 45.5794L173.812 44.6368L172.384 42.2712L165.989 38.7183H162.669C160.358 40.3588 158.703 42.6428 157.693 45.5794L158.639 50.5553L159.822 51.0266H164.088L168.354 50.084L170.019 52.6852V54.1082L171.438 56.9451C171.82 60.1989 171.656 62.646 170.965 64.2865L168.827 63.8152L163.615 64.2865L161.723 65.7004H160.304L154.137 63.3349H148.924L143.712 65.7004L135.89 66.1808L136.836 59.7819L138.5 58.6037L140.156 56.0024C140.629 53.6278 140.156 52.2139 138.737 51.7335L139.21 49.3679V45.1081L136.363 39.8965C135.098 37.8482 133.279 36.3527 130.914 35.401L126.175 34.9297L121.909 36.824C119.635 38.972 117.815 41.5733 116.46 44.6368C116.014 47.4465 116.169 49.658 116.933 51.2622L115.505 51.9782L115.032 53.1565C114.814 54.9601 115.132 56.22 115.987 56.9451L117.643 58.1324L118.825 59.3106L119.771 64.0509L119.062 65.2291L112.43 64.2865C110.911 62.646 108.856 61.5403 106.263 60.9693C101.624 60.2714 98.1493 60.7517 95.8389 62.3922H94.4199L91.0997 60.498C89.6171 60.8786 88.671 60.7155 88.2526 60.0267L83.75 60.498V54.1082L87.3066 47.7093L90.1537 49.1323H92.5187C93.0554 50.0205 94.1652 50.3287 95.8389 50.084L97.4944 48.4253L98.9225 44.1654V42.7425L97.0214 40.3769L93.9469 37.2953L91.5727 36.824C88.7256 36.824 86.5152 37.4584 84.9416 38.7183L80.912 43.6851L76.4093 47.238L69.0596 55.0508L67.6406 57.8967L66.2125 64.5222V65.4648L64.7935 68.3107L65.7395 70.912L72.6162 73.7579C73.0892 74.8546 73.5622 75.0178 74.0352 74.2292L75.9363 75.6432C76.755 75.4256 76.9915 75.7429 76.6458 76.5948L80.6755 78.0178C81.4032 77.7912 81.6397 78.0269 81.385 78.7248L82.0945 78.4891C83.9592 79.7852 86.3242 80.5737 89.2077 80.8547H90.1537L97.2579 81.326L97.9765 82.042L99.3955 89.1388L106.5 102.399L108.874 109.024L109.347 118.967L110.766 121.813L108 133M144.895 110.212L144.422 112.106H144.895V110.212ZM144.422 122.52L143.949 123.943H144.422V122.52Z" stroke="#262626" stroke-width="0.271732"/>
<path d="M88.9166 38.0873C88.7729 38.5139 88.8229 40.0948 88.9666 41.6756C89.3041 44.6868 88.6354 45.9791 87.823 43.8274C87.248 42.2465 86.4356 42.6292 86.7668 44.3543C86.9605 45.5023 86.9105 45.5525 85.9544 45.0695C85.4294 44.737 84.9545 44.6429 84.9545 44.7872C84.9545 44.9252 84.4295 44.6868 83.7609 44.2602C82.561 43.4949 82.5172 43.4949 78.7863 47.3655C76.6866 49.4733 74.7305 51.2424 74.443 51.2424C74.1056 51.2424 74.0118 51.625 74.1993 52.2022C74.343 52.7291 74.2993 53.1557 74.0118 53.1557C73.2931 53.1557 72.4807 56.2673 72.437 59.2345C72.387 62.3461 72.5745 63.2996 73.3431 64.2092C73.6306 64.5919 73.9618 65.3133 74.0556 65.8403C74.2493 66.7938 75.1117 66.9381 77.1178 66.317C77.7364 66.1226 78.4051 66.2669 78.8863 66.7499C80.1737 68.0422 80.9861 67.6533 81.0361 65.696C81.0799 63.9708 81.7985 63.0173 83.9483 61.7689C84.617 61.3863 84.617 61.242 84.0483 60.8593C83.5171 60.5268 83.3734 59.4729 83.4734 56.8883C83.5171 54.1155 83.8546 52.773 84.9982 50.3829C86.5793 47.1271 87.4355 46.4621 88.8229 47.3216C89.3041 47.6541 90.354 47.8924 91.1164 47.8924C92.41 47.8924 92.6475 47.6541 93.5536 45.1698C94.1286 43.6329 94.5098 41.8199 94.3661 41.0546C94.2723 40.3331 94.3661 39.618 94.6035 39.4737C94.7973 39.3294 94.7473 38.8025 94.5098 38.2755C93.8411 37.0836 89.3978 36.9393 88.9166 38.0873ZM91.6413 40.9542C91.6413 42.1524 91.3539 43.8775 90.9726 44.7872C90.5914 45.6466 90.3977 46.506 90.5914 46.6503C90.7352 46.7946 90.5914 46.9389 90.304 46.9389C89.3978 46.9389 89.1603 45.9791 89.829 45.1698C90.1602 44.737 90.4477 43.7333 90.4977 42.9177C90.5914 39.4737 90.7352 38.8025 91.1664 38.8025C91.4538 38.8025 91.6413 39.7623 91.6413 40.9542Z" fill="#262626"/>
<path d="M94.9847 39.6179C94.9847 39.8563 95.1784 40.2892 95.4159 40.6718C95.6534 41.0545 95.4159 42.6291 94.7472 44.831C93.6473 48.3252 93.6473 48.4193 94.6035 48.9024C95.8971 49.6175 96.6595 48.8522 97.8532 45.6904L98.8093 43.0619L97.2782 41.1925C95.7971 39.3795 94.9847 38.8526 94.9847 39.6179ZM96.4221 47.7042C96.4221 48.0868 96.1846 48.275 95.9409 48.1307C95.6534 47.9425 95.5596 47.6101 95.7034 47.3654C96.1346 46.7004 96.4221 46.8447 96.4221 47.7042Z" fill="#262626"/>
<path d="M118.351 43.3505C117.495 45.2639 117.395 46.1233 117.683 48.6577C117.876 50.3327 118.208 51.7253 118.451 51.7253C119.02 51.7253 118.976 50.0504 118.351 47.8924C117.876 46.4119 117.97 45.8347 118.876 43.8775C119.451 42.6291 119.789 41.4811 119.645 41.2929C119.501 41.1486 118.926 42.0582 118.351 43.3505Z" fill="#262626"/>
<path d="M123.563 44.4045C123.082 44.4986 122.701 44.7871 122.701 45.0255C122.701 45.2639 122.557 45.8348 122.413 46.3178C122.126 47.033 122.226 47.0832 122.751 46.5562C123.751 45.6466 124.138 45.885 124.138 47.4156C124.138 49.0906 124.232 49.1408 125.807 48.0869C127.432 47.033 127.382 45.1698 125.757 44.5425C125.088 44.2602 124.519 44.1159 124.469 44.1159C124.419 44.1598 123.994 44.2602 123.563 44.4045Z" fill="#262626"/>
<path d="M126.763 49.7618C126.288 50.5711 127.338 50.7656 127.957 50.0504C128.438 49.4733 128.438 49.329 127.813 49.329C127.382 49.329 126.957 49.5235 126.763 49.7618Z" fill="#262626"/>
<path d="M124.901 50.5711C124.707 51.0039 124.707 51.4807 124.851 51.625C124.951 51.7692 125.188 51.4807 125.376 51.0541C125.569 50.6212 125.569 50.1445 125.426 50.0002C125.332 49.8559 125.088 50.1445 124.901 50.5711Z" fill="#262626"/>
<path d="M116.302 53.256C116.158 53.8771 116.202 54.4981 116.445 54.7365C116.683 54.9749 116.97 54.4981 117.064 53.6826C117.301 51.9637 116.726 51.6752 116.302 53.256Z" fill="#262626"/>
<path d="M126.526 53.8771C126.188 54.3037 125.519 54.4981 125.044 54.3539C124.42 54.1657 124.138 54.3037 124.138 54.7867C124.138 55.2133 124.42 55.5521 124.757 55.5521C125.569 55.5019 127.769 53.783 127.432 53.394C127.288 53.256 126.857 53.4442 126.526 53.8771Z" fill="#262626"/>
<path d="M117.639 54.8306C117.301 55.6462 117.826 56.606 118.451 56.2672C119.02 55.8845 119.02 54.1155 118.401 54.1155C118.114 54.1155 117.782 54.448 117.639 54.8306Z" fill="#262626"/>
<path d="M88.298 61.2921C88.298 61.5807 88.6355 61.9132 89.0167 62.0575C90.1166 62.4903 91.1665 65.0749 91.1665 67.465C91.1665 70.2378 90.5416 71.3858 89.7791 70.0935C89.3479 69.3282 89.2042 69.2843 88.773 69.9053C88.5355 70.288 88.298 71.3858 88.298 72.3456C88.298 73.2553 87.7731 75.0745 87.1544 76.4107C86.5295 77.703 86.0983 78.9012 86.1982 79.0455C86.5295 79.5724 90.7353 80.3817 94.2725 80.6264C97.1847 80.7644 97.8096 80.6703 98.8595 79.8108C100.722 78.2802 102.009 75.3129 101.297 74.1649C100.578 73.0608 100.528 71.3419 101.197 71.3419C101.484 71.3419 101.678 70.5766 101.678 69.6669C101.678 68.2806 101.247 67.465 99.5282 65.6458C98.3346 64.4037 97.5659 63.2055 97.7596 62.9671C97.9533 62.7726 97.3784 62.7287 96.516 62.873C95.3224 63.1114 94.3162 62.873 92.5976 62.0073C90.1604 60.7652 88.298 60.4766 88.298 61.2921Z" fill="#262626"/>
<path d="M71.3372 64.1653C71.4809 64.4037 71.7184 64.6421 71.8621 64.6421C71.9558 64.6421 72.0496 64.4037 72.0496 64.1653C72.0496 63.8767 71.8121 63.6823 71.5246 63.6823C71.2872 63.6823 71.1934 63.8767 71.3372 64.1653Z" fill="#262626"/>
<path d="M112.621 77.703C112.571 77.8975 112.571 78.4683 112.571 78.9953C112.571 80.7204 112.664 80.9086 113.383 80.9086C114.627 80.9086 114.77 79.4721 113.671 78.3742C113.146 77.8034 112.664 77.5148 112.621 77.703Z" fill="#262626"/>
<path d="M114.152 97.514C114.152 97.8026 113.958 98.4739 113.814 98.9506C113.577 99.6219 113.62 99.6658 114.052 99.2831C114.389 98.9506 114.577 98.3296 114.433 97.8465C114.289 97.3259 114.195 97.1816 114.152 97.514Z" fill="#262626"/>
<path d="M113.477 101.341C113.095 103.21 113.958 103.875 114.577 102.25C115.058 100.958 114.864 100.048 114.152 100.048C113.908 100.048 113.62 100.626 113.477 101.341Z" fill="#262626"/>
<path d="M114.771 105.506C114.627 105.839 114.577 106.322 114.627 106.56C114.721 106.798 114.627 107.99 114.433 109.189C114.246 110.431 114.289 112.35 114.577 113.592C114.82 114.791 115.102 117.752 115.152 120.098C115.245 124.069 115.295 124.357 116.108 123.924C117.064 123.404 117.064 123.209 117.208 114.408C117.252 109.91 117.114 108.517 116.345 106.842C115.345 104.691 115.152 104.502 114.771 105.506Z" fill="#262626"/>
<path fill-rule="evenodd" clip-rule="evenodd" d="M126.044 35.5028C125.138 35.7913 123.85 36.4124 123.182 36.8892L121.982 37.7988L123.706 37.5604C125.475 37.2718 125.856 37.6545 126.287 40.2391C126.381 40.6218 126.475 41.293 126.569 41.6757C126.712 42.2026 126.237 42.441 124.756 42.5351C123.656 42.6292 122.557 42.9178 122.319 43.2503C121.938 43.6831 122.513 43.8274 124.613 43.8776C128.862 43.9717 128.912 44.0219 128.912 47.7984C128.912 49.6176 128.768 51.2424 128.581 51.4369C128.387 51.6251 128.194 52.5849 128.15 53.5886C128.1 54.5923 127.912 55.6964 127.769 55.9787C127.575 56.3175 127.669 56.8444 127.956 57.2271C128.387 57.7541 128.337 58.3249 127.719 59.7113C126.331 62.917 126.287 62.9672 124.325 62.8731C122.607 62.7727 122.513 62.8229 123.369 63.4439C124.138 64.0211 124.181 64.3096 123.75 64.7362C123.275 65.213 122.938 65.213 122.269 64.7864C121.557 64.3096 121.219 64.4037 120.601 65.075C119.932 65.7901 119.451 65.8842 118.02 65.5517C117.063 65.3134 115.439 65.1189 114.432 65.1189C113.195 65.1189 111.951 64.6421 110.514 63.6823C107.939 61.9132 103.108 60.6711 103.108 61.769C103.108 62.0073 103.54 62.252 104.021 62.252C104.496 62.252 105.021 62.5845 105.165 62.9672C105.546 63.927 109.133 65.6458 109.989 65.3134C110.42 65.1691 110.758 65.2632 110.758 65.6019C110.758 65.8842 111.139 66.0285 111.614 65.8842C112.239 65.696 112.764 66.1728 113.764 67.7537C114.482 68.9456 115.057 70.194 115.057 70.4825C115.057 70.815 115.582 71.5804 116.201 72.2516C116.826 72.9668 117.782 74.259 118.257 75.1687C118.782 76.0281 119.738 77.1322 120.457 77.5588C121.844 78.3241 123.369 80.7205 122.75 81.1471C122.175 81.4859 122.894 84.7856 123.8 86.2222C124.563 87.4204 124.469 88.9009 123.606 89.5219C123.419 89.6662 123.182 91.0087 123.038 92.4892C122.894 94.114 122.369 95.9332 121.744 96.9432C120.551 98.9005 120.601 99.0949 122.794 99.5215C124.088 99.8101 124.375 100.048 124.231 101.008C124.181 101.629 123.8 102.489 123.419 102.922C122.938 103.449 122.7 104.691 122.7 106.46C122.7 108.9 122.607 109.189 121.457 109.621C120.119 110.148 120.313 111.058 121.794 111.058C122.607 111.058 122.75 111.34 122.7 113.304C122.65 114.596 122.844 117.087 123.132 118.856C123.513 121.202 123.513 122.394 123.132 123.065C122.844 123.592 122.75 124.357 122.894 124.74C123.038 125.123 122.938 125.411 122.7 125.411C122.463 125.411 122.369 125.7 122.513 126.083C122.65 126.465 122.513 127.231 122.225 127.801C121.844 128.523 121.844 129 122.175 129.432C122.513 129.859 122.513 130.198 122.125 130.581C121.7 131.007 121.7 131.151 122.125 131.151C122.463 131.151 122.7 131.628 122.7 132.155C122.7 132.92 122 133 122 133C122.719 132.812 114 133 114 133C114 133 120.788 132.782 120.788 131.917C120.788 131.584 120.263 130.48 119.594 129.527C118.926 128.567 118.257 127.231 118.113 126.61C117.97 125.938 117.638 125.411 117.395 125.411C116.632 125.411 116.92 126.559 118.163 128.379C119.451 130.292 119.594 130.963 118.876 131.39C118.494 131.628 116.682 130.48 112.57 127.325C110.995 126.126 110.758 126.126 110.758 127.375C110.758 127.902 111.614 129.382 112.664 130.624C114.007 132.205 114.5 131.446 114.5 132.5C114.5 132.99 114.279 132.977 114 133C114.833 132.975 146.5 133 147.5 133C146.363 130.325 146.206 129.793 145.254 124.884C145.017 123.642 144.967 119.859 145.161 116.466C145.592 108.95 146.592 105.6 150.035 99.9544C153.76 93.8756 156.772 88.0853 157.391 85.6952L157.966 83.5435L160.022 83.6376C164.271 83.8321 169.958 82.8221 173.733 81.1973C183.769 76.7935 187.494 75.0746 188.256 74.3531C188.975 73.6882 189.069 73.0609 188.881 70.4324C188.213 63.0613 186.969 60.3324 181.426 54.0654C178.945 51.2926 175.976 47.5098 174.833 45.5965C172.589 41.8639 171.246 40.8601 166.996 39.5239L164.227 38.7084L162.646 40.2893C159.828 43.1562 159.303 44.5927 159.778 47.4659L160.209 50.0505L163.553 49.856C170.964 49.4232 170.008 49.0405 171.82 53.5384C173.258 57.271 173.352 57.7039 173.014 61.1981L172.633 64.8805L169.289 64.7362C166.802 64.6421 165.421 64.8805 164.034 65.5016C162.121 66.4112 162.121 66.4112 159.109 65.2632C155.191 63.8266 150.129 63.7827 147.073 65.1691C145.017 66.1226 136.699 67.3208 136.13 66.7938C136.03 66.6496 136.13 64.8805 136.418 62.8229C136.843 59.9058 137.18 58.946 138.136 58.1806C140.43 56.3175 141.049 53.6827 139.474 52.5849C138.661 52.0077 138.661 51.6753 139.092 49.235C139.424 47.2275 139.424 45.9791 139.042 44.6429C138.518 42.9178 135.749 38.8025 134.168 37.4663C131.874 35.5028 128.725 34.7813 126.044 35.5028ZM126.287 37.849C126.525 38.2316 127.956 37.987 127.956 37.5604C127.956 37.4663 127.525 37.3659 126.956 37.3659C126.431 37.3659 126.094 37.5604 126.287 37.849ZM129.675 43.589C129.775 43.589 129.868 43.2503 129.868 42.8676C129.868 42.4849 129.675 42.1524 129.393 42.1524C129.15 42.1524 129.056 42.4849 129.2 42.8676C129.393 43.2503 129.581 43.589 129.675 43.589ZM181.238 62.252C181.138 60.9095 180.807 59.5231 180.52 59.1405C179.801 58.2747 178.607 58.1806 178.607 58.946C178.607 59.2847 178.32 59.7615 177.939 60.0501C177.27 60.577 176.982 61.8191 177.126 63.927C177.176 64.4476 177.601 65.1691 178.176 65.5016C178.989 66.0285 179.326 66.0285 180.232 65.4075C181.188 64.7864 181.332 64.3535 181.238 62.252ZM180.47 67.992C180.757 67.992 181.095 67.7537 181.238 67.5153C181.376 67.2267 181.188 67.0322 180.807 67.0322C180.376 67.0322 180.038 67.2267 180.038 67.5153C180.038 67.7537 180.232 67.992 180.47 67.992ZM131.299 77.082C132.018 76.6994 132.256 76.1724 132.112 75.313C132.018 74.5915 131.687 73.9266 131.349 73.8262C130.918 73.6882 130.825 73.9266 131.018 74.5915C131.206 75.1185 131.112 75.6956 130.825 75.8838C130.587 76.0281 130.35 76.5112 130.35 76.8938C130.35 77.4647 130.537 77.4647 131.299 77.082ZM131.112 81.1032C132.162 81.5298 132.256 81.4859 132.256 80.6703C132.256 80.2877 131.831 79.9552 131.299 79.9552C130.156 79.9552 130.012 80.6703 131.112 81.1032ZM131.687 99.7662C132.399 97.0373 132.399 92.7276 131.687 92.0124C131.349 91.6737 130.918 91.4353 130.731 91.4353C129.918 91.4353 129.293 94.1641 129.293 97.6584C129.393 109.044 129.343 112.444 129.15 114.025C129.006 114.979 129.15 115.939 129.393 116.083C129.725 116.271 129.725 116.704 129.393 117.275C128.675 118.567 128.768 121.246 129.537 121.007C129.818 120.863 130.156 120.386 130.25 119.859C130.35 119.383 130.537 118.617 130.681 118.235C130.825 117.852 131.018 115.983 131.112 114.163C131.206 112.3 131.637 109.571 132.018 108.041C132.924 104.503 132.924 103.925 131.924 102.828C131.206 102.062 131.206 101.629 131.687 99.7662ZM125.138 129.527C125.138 130.054 125.281 130.198 125.425 129.815C125.569 129.476 125.519 129.05 125.375 128.906C125.231 128.711 125.088 129 125.138 129.527Z" fill="#262626"/>
<path d="M18.9325 79.9605C19.3512 78.6933 20.0012 77.8151 20.8823 77.3258C21.7698 76.8239 22.7447 76.7424 23.8071 77.0748C24.8945 77.4261 25.6506 78.066 26.0818 78.9819C26.5005 79.9041 26.5005 81.0019 26.0818 82.2691L25.2569 84.8035L28.7816 85.9578L29.4565 84.7031L30.4814 85.0293L29.0815 89.3203L28.0566 88.9941L28.2816 87.5888L18.9075 84.5526L18.2076 85.8072L17.1577 85.4559L17.6077 84.126L18.9325 79.9605ZM23.982 84.402L24.807 81.8676C25.0757 81.0646 25.0569 80.3871 24.757 79.8351C24.457 79.283 23.9758 78.9004 23.3071 78.6808C22.6447 78.4801 22.0322 78.5177 21.4823 78.7812C20.9198 79.0509 20.5011 79.5842 20.2324 80.3871L19.4075 82.9215L23.982 84.402Z" fill="#F0F2F2"/>
<path d="M35.0374 72.8976L34.0875 72.3957L34.5124 71.0156L25.7883 66.4487L24.9134 67.6029L23.9385 67.076L28.388 58.4941L31.0628 59.8994L30.3878 61.2042L28.863 60.5518L26.5632 64.9431L30.1379 66.825L32.3626 62.5592L33.5375 63.1866L31.3127 67.4524L35.2874 69.51L37.6121 65.0434L36.2123 64.1401L36.8872 62.8603L39.5369 64.2405L35.0374 72.8976Z" fill="#F0F2F2"/>
<path d="M37.0498 45.6315C37.8872 44.5462 38.7621 43.9001 39.6745 43.6993C40.5932 43.486 41.4931 43.7181 42.3742 44.4019C42.8617 44.7721 43.1867 45.23 43.3492 45.782C43.5116 46.3341 43.5116 46.9489 43.3492 47.6138C43.9303 47.1998 44.5115 47.0304 45.099 47.112C45.6989 47.181 46.2864 47.4382 46.8738 47.8899L47.6487 48.4921C47.9612 48.743 48.2237 48.8873 48.4237 48.9187C48.6361 48.9375 48.8236 48.8685 48.9736 48.7179L49.2736 48.4168L50.1485 49.0943L49.5985 49.822C49.1986 50.3427 48.7299 50.5748 48.1987 50.5246C47.6612 50.4745 47.1363 50.2486 46.6238 49.8471L45.8489 49.2449C45.3115 48.8309 44.7615 48.6552 44.1991 48.7179C43.6304 48.7869 43.1492 49.0881 42.7492 49.6213L41.0994 51.7793L44.474 54.3639L45.5239 53.4104L46.3739 54.0628L43.6491 57.6511L42.7992 56.9987L43.4491 55.7189L35.6249 49.7217L34.575 50.7003L33.7251 50.0228L34.575 48.8936L37.0498 45.6315ZM40.0245 50.9512L41.3743 49.1947C41.943 48.4294 42.218 47.7644 42.1993 47.2124C42.168 46.6603 41.868 46.171 41.2994 45.7319C40.7869 45.3492 40.262 45.2049 39.7245 45.3053C39.1746 45.3931 38.6371 45.7758 38.0997 46.4596L36.6498 48.3666L40.0245 50.9512Z" fill="#F0F2F2"/>
<path d="M55.8222 30.9163L54.8973 31.7946L53.4474 30.7156C53.0975 30.7344 52.7225 30.841 52.3225 31.0418C51.9101 31.23 51.4976 31.5123 51.0976 31.895C50.4352 32.516 50.0478 33.1245 49.9478 33.7268C49.8478 34.329 50.0165 34.8559 50.4477 35.3076C50.8164 35.7091 51.2976 35.8785 51.8976 35.8095C52.4975 35.7279 53.2912 35.4268 54.2723 34.9061C55.4722 34.2223 56.5346 33.8773 57.472 33.8773C58.4032 33.8773 59.1968 34.2223 59.8468 34.9061C60.528 35.6589 60.7717 36.5497 60.5717 37.566C60.3842 38.5697 59.8093 39.5233 58.8469 40.4266C58.147 41.079 57.4095 41.5495 56.6471 41.8318C55.8784 42.1016 55.1535 42.2082 54.4723 42.158L52.8975 40.4517L53.7974 39.5985L55.2722 40.6775C55.7034 40.6775 56.1347 40.5897 56.5721 40.4015C57.0221 40.2008 57.4783 39.8871 57.947 39.448C58.5594 38.8646 58.9281 38.2811 59.0469 37.6915C59.1594 37.0892 59.0094 36.5623 58.5969 36.1106C58.1969 35.6777 57.7032 35.4707 57.1221 35.4833C56.5534 35.4833 55.7847 35.7593 54.8223 36.3113C53.6411 36.9826 52.5663 37.3527 51.5976 37.4154C50.6352 37.4656 49.8353 37.152 49.1978 36.4619C48.5354 35.7467 48.2854 34.8685 48.4479 33.8271C48.6166 32.7732 49.1916 31.7946 50.1727 30.8912C50.8102 30.289 51.4914 29.8561 52.2225 29.5864C52.96 29.3041 53.6224 29.1724 54.2223 29.1849L55.8222 30.9163Z" fill="#F0F2F2"/>
<path d="M73.9661 21.1516C74.9472 22.676 75.3284 24.2318 75.1159 25.8189C74.8972 27.4123 74.091 28.6544 72.6912 29.5578C71.3413 30.4486 69.9165 30.6619 68.4166 30.2102C66.9167 29.746 65.6794 28.7485 64.692 27.2241L64.567 27.0485C63.5858 25.5303 63.1859 23.9808 63.3671 22.4062C63.5546 20.8379 64.317 19.6084 65.6669 18.7176C67.0667 17.8142 68.5291 17.5884 70.0664 18.04C71.5975 18.4792 72.8537 19.4578 73.8411 20.9759L73.9661 21.1516ZM72.4412 21.9044C71.6413 20.6685 70.6914 19.8593 69.5915 19.4704C68.5041 19.0877 67.4542 19.232 66.4168 19.8969C65.4356 20.5494 64.9294 21.4464 64.8919 22.5819C64.8419 23.7236 65.2107 24.903 65.9918 26.12L66.1168 26.2957C66.9167 27.5378 67.8417 28.3659 68.8916 28.7799C69.9414 29.1814 70.9538 29.0559 71.9413 28.4035C72.9911 27.7197 73.5536 26.8101 73.6411 25.6683C73.7223 24.5141 73.3661 23.3221 72.5662 22.08L72.4412 21.9044Z" fill="#F0F2F2"/>
<path d="M90.407 6.44751L90.8319 7.47633L89.6321 8.25421L93.9066 18.6177L92.3318 19.2701L83.0827 12.6455L83.0327 12.6706L86.2324 20.3742L87.6073 20.0731L88.0072 21.0768L83.8576 22.8082L83.4577 21.8045L84.6575 21.0266L80.8829 11.8927L79.4831 12.2189L79.0581 11.1901L80.358 10.6381L81.9328 9.98564L91.1819 16.6604L91.2319 16.6102L88.0572 8.90663L86.6574 9.23284L86.2324 8.20403L89.1071 6.99956L90.407 6.44751Z" fill="#F0F2F2"/>
<path d="M101.828 14.9108L102.703 14.5846L104.653 2.56503L106.078 2.26392L112.602 12.5019L113.527 12.4266L113.752 13.4805L110.227 14.2333L110.002 13.1794L110.927 12.803L109.627 10.7203L104.728 11.7491L104.353 14.1831H105.328L105.553 15.237L102.053 15.9647L101.828 14.9108ZM104.928 10.2435L108.827 9.41545L105.828 4.54739L105.778 4.57248L104.928 10.2435Z" fill="#F0F2F2"/>
<path d="M120.998 12.7222L120.948 11.6432L122.348 11.3421L121.998 1.4554L120.598 1.25465L120.548 0.150559L121.948 0.100372L123.648 0.0501862L125.047 0L125.097 1.1041L123.698 1.40521L124.048 11.2919L128.397 11.1413L128.472 9.68594L129.922 9.63575L130.022 12.396L120.998 12.7222Z" fill="#F0F2F2"/>
<path d="M161.234 4.30982L160.584 7.01987L159.184 6.69366L159.409 5.26335L156.709 4.61093L154.409 14.2216L155.734 14.7987L155.484 15.8526L151.085 14.7987L151.335 13.7448L152.76 13.8201L155.059 4.20944L152.36 3.58212L151.885 4.93714L150.485 4.61093L151.135 1.90088L161.234 4.30982Z" fill="#F0F2F2"/>
<path d="M175.11 9.41625C176.373 9.95576 177.223 10.6458 177.66 11.499C178.091 12.3521 178.085 13.2931 177.635 14.3094C177.398 14.8615 177.035 15.3006 176.535 15.6143C176.048 15.9154 175.46 16.0597 174.76 16.0408C175.31 16.5113 175.616 17.0383 175.685 17.6217C175.766 18.2114 175.666 18.8387 175.385 19.5288L174.985 20.4572C174.835 20.8211 174.767 21.1096 174.785 21.3104C174.798 21.5237 174.898 21.6931 175.085 21.8122L175.41 22.013L174.985 23.0167L174.16 22.6654C173.56 22.3957 173.217 21.9942 173.135 21.4609C173.067 20.9214 173.16 20.3631 173.41 19.7797L173.785 18.8764C174.067 18.2428 174.11 17.6656 173.91 17.1449C173.71 16.6117 173.298 16.2102 172.685 15.9405L170.186 14.8615L168.511 18.776L169.711 19.5539L169.286 20.5576L165.136 18.776L165.561 17.7723L166.961 18.1236L170.836 9.03986L169.636 8.23688L170.061 7.23315L171.361 7.8103L175.11 9.41625ZM170.711 13.6068L172.76 14.4851C173.623 14.874 174.323 14.9869 174.86 14.8364C175.391 14.6733 175.798 14.2592 176.085 13.6068C176.335 13.0046 176.341 12.4525 176.11 11.9507C175.891 11.4362 175.385 10.9971 174.585 10.6458L172.386 9.69228L170.711 13.6068Z" fill="#F0F2F2"/>
<path d="M182.012 25.5151L182.837 25.9417L192.736 18.8655L193.936 19.6685L191.286 31.5375L191.986 32.1648L191.386 33.0682L188.386 31.0607L188.986 30.1574L189.886 30.5338L190.436 28.175L186.262 25.3897L184.287 26.82L184.987 27.4975L184.387 28.4009L181.412 26.4185L182.012 25.5151ZM187.487 24.4863L190.811 26.6694L192.161 21.1239L192.111 21.0988L187.487 24.4863Z" fill="#F0F2F2"/>
<path d="M204.727 29.3249L205.477 28.4968L208.801 31.5331L208.052 32.3612L206.877 31.5833L200.277 38.9356L201.127 40.0647L200.402 40.8677L197.078 37.8315L197.803 37.0285L199.002 37.8064L205.602 30.4541L204.727 29.3249Z" fill="#F0F2F2"/>
<path d="M223.283 47.7907L222.433 48.4933L221.359 47.5398L212.684 54.616L211.609 53.2861L215.309 42.4961L215.259 42.471L208.785 47.7405L209.485 48.9701L208.66 49.6476L205.81 46.1596L206.635 45.4821L207.71 46.4106L215.359 40.1624L214.684 38.9328L215.534 38.2302L216.409 39.3092L217.484 40.6392L213.759 51.4543H213.834L220.284 46.2098L219.584 44.9803L220.434 44.2777L222.408 46.6866L223.283 47.7907Z" fill="#F0F2F2"/>
<path d="M217.581 61.864L218.53 61.3371L219.405 62.4412L228.03 57.6735L227.58 56.3185L228.554 55.7915L233.204 64.2479L230.554 65.7033L229.854 64.4235L231.229 63.4951L228.829 59.1791L225.305 61.1363L227.63 65.352L226.455 66.0044L224.13 61.7888L220.205 63.9468L222.655 68.3631L224.18 67.6856L224.905 68.9654L222.28 70.4208L217.581 61.864Z" fill="#F0F2F2"/>
<path d="M239.085 78.6273C239.516 79.9133 239.566 80.9923 239.235 81.8643C238.916 82.7489 238.223 83.3762 237.16 83.7463C236.592 83.9471 236.023 83.9722 235.46 83.8216C234.91 83.671 234.398 83.3323 233.936 82.8179C233.967 83.5205 233.786 84.0976 233.386 84.5493C232.998 85.001 232.467 85.3397 231.786 85.5781L230.836 85.9043C230.448 86.0361 230.186 86.1803 230.036 86.3309C229.898 86.494 229.861 86.6885 229.911 86.908L230.011 87.3095L228.961 87.6608L228.661 86.8077C228.442 86.1678 228.499 85.6408 228.836 85.2268C229.186 84.8253 229.667 84.5117 230.286 84.2984L231.211 83.9972C231.842 83.7589 232.292 83.395 232.561 82.8932C232.823 82.3913 232.848 81.8204 232.636 81.1868L231.736 78.6022L227.711 80.0074L227.961 81.4127L226.936 81.764L225.461 77.4981L226.486 77.1468L227.161 78.4015L236.485 75.1645L236.26 73.7593L237.285 73.408L237.735 74.7379L239.085 78.6273ZM233.011 78.1756L233.736 80.2835C234.048 81.1868 234.442 81.7765 234.91 82.0651C235.392 82.3474 235.967 82.3725 236.635 82.1404C237.248 81.9208 237.673 81.5507 237.91 81.0363C238.141 80.5344 238.116 79.8694 237.835 79.0539L237.035 76.7704L233.011 78.1756Z" fill="#F0F2F2"/>
<path d="M52.908 168.83C52.908 174.74 51.2207 179.62 47.8585 183.485C44.5089 187.336 40.1093 189.256 34.6598 189.256C29.2416 189.256 24.8671 187.336 21.5361 183.485C18.199 179.62 16.5366 174.74 16.5366 168.83V168.228C16.5366 162.375 18.1927 157.513 21.5111 153.649C24.8421 149.772 29.2166 147.827 34.6348 147.827C40.0843 147.827 44.4901 149.772 47.8585 153.649C51.2207 157.513 52.908 162.375 52.908 168.228V168.83ZM44.8838 168.178C44.8838 164.012 44.0152 160.637 42.2841 158.04C40.5655 155.431 38.0158 154.126 34.6348 154.126C31.2477 154.126 28.7229 155.424 27.0606 158.015C25.4107 160.593 24.5858 163.981 24.5858 168.178V168.83C24.5858 173.084 25.4232 176.503 27.1106 179.093C28.7917 181.691 31.3102 182.983 34.6598 182.983C38.0595 182.983 40.6093 181.691 42.3091 179.093C44.0214 176.503 44.8838 173.084 44.8838 168.83V168.178Z" fill="#F0F2F2"/>
<path d="M88.3149 161.252H82.2905L81.2406 155.732C80.5407 155.28 79.5158 154.897 78.1659 154.577C76.8285 154.245 75.4162 154.076 73.9163 154.076C71.6978 154.076 69.9917 154.546 68.7918 155.481C67.5919 156.403 66.992 157.601 66.992 159.069C66.992 160.443 67.6169 161.572 68.8668 162.457C70.1292 163.329 72.304 164.251 75.3912 165.217C79.822 166.459 83.1779 168.09 85.4652 170.11C87.7462 172.136 88.8898 174.803 88.8898 178.115C88.8898 181.565 87.5275 184.281 84.8152 186.27C82.0967 188.265 78.5159 189.256 74.0663 189.256C70.8791 189.256 68.0044 188.754 65.4421 187.751C62.8924 186.734 60.7551 185.329 59.0428 183.535V175.129H65.2672L66.1421 180.85C66.942 181.521 68.0294 182.073 69.4167 182.506C70.8166 182.926 72.3665 183.133 74.0663 183.133C76.2661 183.133 77.9409 182.682 79.0908 181.778C80.2407 180.875 80.8156 179.671 80.8156 178.165C80.8156 176.609 80.2657 175.367 79.1658 174.426C78.0784 173.491 76.1723 172.607 73.4413 171.766C68.6731 170.399 65.0672 168.768 62.6174 166.873C60.1802 164.966 58.9678 162.356 58.9678 159.044C58.9678 155.782 60.3426 153.116 63.0924 151.039C65.8546 148.969 69.323 147.903 73.4913 147.853C76.5723 147.853 79.3783 148.323 81.9155 149.258C84.4653 150.199 86.5963 151.453 88.3149 153.022V161.252Z" fill="#F0F2F2"/>
<path d="M93.3457 183.836L96.2204 183.435L108.419 148.405H116.668L128.792 183.435L131.667 183.836V188.679H117.993V183.836L120.768 183.334L119.018 177.814H105.994L104.245 183.334L107.019 183.836V188.679H93.3457V183.836ZM107.894 171.867H117.118L112.594 157.664H112.419L107.894 171.867Z" fill="#F0F2F2"/>
<path d="M174.732 158.893L174.557 158.843L163.808 188.679H158.409L147.71 158.969L147.56 158.994L148.335 176.659V183.008L152.635 183.836V188.679H136.011V183.836L140.286 183.008V154.101L136.011 153.273V148.405H150.785L161.009 178.09H161.159L171.483 148.405H186.306V153.273L182.007 154.101V183.008L186.306 183.836V188.679H169.683V183.836L173.957 183.008V176.659L174.732 158.893Z" fill="#F0F2F2"/>
<path d="M190.451 183.836L193.325 183.435L205.524 148.405H213.773L225.897 183.435L228.772 183.836V188.679H215.098V183.836L217.873 183.334L216.123 177.814H203.099L201.35 183.334L204.124 183.836V188.679H190.451V183.836ZM204.999 171.867H214.223L209.699 157.664H209.524L204.999 171.867Z" fill="#F0F2F2"/>
<path d="M203.393 215.195H255" stroke="#F0F2F2" stroke-width="3.64417"/>
<path d="M0 215.195H51.6074" stroke="#F0F2F2" stroke-width="3.64417"/>
<path d="M74.9923 208.661C76.5546 208.661 77.7733 208.975 78.6419 209.589C79.5231 210.192 79.9668 211.107 79.9668 212.324C79.9668 212.946 79.7981 213.498 79.4668 213.981C79.1481 214.47 78.6732 214.834 78.042 215.085C78.8419 215.254 79.4418 215.624 79.8418 216.189C80.2418 216.741 80.4417 217.387 80.4417 218.121C80.4417 219.394 80.0168 220.367 79.1669 221.032C78.3295 221.684 77.1483 222.01 75.6172 222.01H69.0679V220.404L70.4927 220.128V210.543L69.0679 210.267V208.661H74.9923ZM73.1675 216.114V219.953H75.6172C76.3172 219.953 76.8483 219.802 77.2171 219.501C77.5983 219.187 77.792 218.723 77.792 218.121C77.792 217.469 77.6295 216.979 77.3171 216.64C76.9983 216.289 76.4984 216.114 75.8172 216.114H73.1675ZM73.1675 214.257H75.0673C75.7797 214.257 76.3296 214.119 76.7171 213.83C77.0983 213.529 77.2921 213.096 77.2921 212.525C77.2921 211.91 77.0983 211.459 76.7171 211.17C76.3296 210.869 75.7547 210.719 74.9923 210.719H73.1675V214.257Z" fill="#F0F2F2"/>
<path d="M86.0503 220.404L87.0002 220.279L91.0498 208.661H93.7745L97.7991 220.279L98.749 220.404V222.01H94.1995V220.404L95.1244 220.254L94.5495 218.397H90.2499L89.6499 220.254L90.5748 220.404V222.01H86.0503V220.404ZM90.8748 216.44H93.9245L92.4247 211.747H92.3747L90.8748 216.44Z" fill="#F0F2F2"/>
<path d="M110.325 208.661C111.838 208.661 113.025 209.012 113.875 209.715C114.738 210.405 115.175 211.358 115.175 212.575C115.175 213.247 114.988 213.83 114.625 214.332C114.275 214.834 113.75 215.235 113.05 215.536C113.831 215.775 114.4 216.157 114.75 216.691C115.1 217.23 115.275 217.895 115.275 218.698V219.376C115.275 219.677 115.325 219.915 115.425 220.078C115.537 220.229 115.731 220.323 116 220.354L116.35 220.404V222.01H114.95C114.081 222.01 113.475 221.778 113.125 221.308C112.775 220.844 112.6 220.229 112.6 219.476V218.723C112.6 218.071 112.425 217.563 112.075 217.193C111.738 216.829 111.257 216.634 110.625 216.615H108.451V220.128L109.876 220.404V222.01H104.351V220.404L105.776 220.128V210.543L104.351 210.267V208.661H110.325ZM108.451 214.558H110.275C111.025 214.558 111.582 214.401 111.95 214.081C112.332 213.767 112.525 213.303 112.525 212.701C112.525 212.099 112.332 211.622 111.95 211.271C111.582 210.907 111.038 210.719 110.325 210.719H108.451V214.558Z" fill="#F0F2F2"/>
<path d="M127.926 208.661C129.438 208.661 130.626 209.012 131.476 209.715C132.338 210.405 132.776 211.358 132.776 212.575C132.776 213.247 132.588 213.83 132.226 214.332C131.876 214.834 131.351 215.235 130.651 215.536C131.432 215.775 132.001 216.157 132.351 216.691C132.701 217.23 132.876 217.895 132.876 218.698V219.376C132.876 219.677 132.926 219.915 133.026 220.078C133.138 220.229 133.332 220.323 133.601 220.354L133.95 220.404V222.01H132.551C131.682 222.01 131.076 221.778 130.726 221.308C130.376 220.844 130.201 220.229 130.201 219.476V218.723C130.201 218.071 130.026 217.563 129.676 217.193C129.338 216.829 128.857 216.634 128.226 216.615H126.051V220.128L127.476 220.404V222.01H121.952V220.404L123.377 220.128V210.543L121.952 210.267V208.661H127.926ZM126.051 214.558H127.876C128.626 214.558 129.182 214.401 129.551 214.081C129.932 213.767 130.126 213.303 130.126 212.701C130.126 212.099 129.932 211.622 129.551 211.271C129.182 210.907 128.639 210.719 127.926 210.719H126.051V214.558Z" fill="#F0F2F2"/>
<path d="M148.151 216.139H143.652V219.953H147.926L148.051 218.372H150.076V222.01H139.552V220.404L140.977 220.128V210.543L139.552 210.267V208.661H150.051V212.324H148.026L147.901 210.719H143.652V214.081H148.151V216.139Z" fill="#F0F2F2"/>
<path d="M167.964 208.661V212.224H165.914L165.789 210.719H163.365V220.128L164.789 220.404V222.01H159.265V220.404L160.69 220.128V210.719H158.24L158.14 212.224H156.115V208.661H167.964Z" fill="#F0F2F2"/>
<path d="M185.731 215.436C185.731 217.393 185.169 219.018 184.056 220.304C182.938 221.577 181.481 222.211 179.682 222.211C177.882 222.211 176.419 221.577 175.307 220.304C174.207 219.018 173.657 217.393 173.657 215.436V215.235C173.657 213.297 174.207 211.691 175.307 210.417C176.419 209.131 177.869 208.485 179.657 208.485C181.469 208.485 182.938 209.131 184.056 210.417C185.169 211.691 185.731 213.297 185.731 215.235V215.436ZM183.056 215.21C183.056 213.842 182.769 212.726 182.206 211.873C181.638 211.007 180.788 210.568 179.657 210.568C178.538 210.568 177.707 210.994 177.157 211.848C176.607 212.701 176.332 213.824 176.332 215.21V215.436C176.332 216.841 176.607 217.983 177.157 218.849C177.719 219.702 178.563 220.128 179.682 220.128C180.794 220.128 181.638 219.702 182.206 218.849C182.769 217.983 183.056 216.841 183.056 215.436V215.21Z" fill="#F0F2F2"/>
<path d="M11.0234 120.971C11.0234 119.804 11.2984 118.976 11.8484 118.487C12.4108 117.985 13.1045 117.734 13.9232 117.734C14.4543 117.734 14.9356 117.847 15.373 118.06C15.823 118.28 16.1792 118.631 16.4479 119.114C16.7104 119.585 16.8479 120.206 16.8479 120.971C16.8479 122.125 16.5604 122.953 15.9979 123.455C15.4293 123.957 14.7356 124.208 13.9232 124.208C13.1045 124.208 12.4108 123.957 11.8484 123.455C11.2984 122.953 11.0234 122.125 11.0234 120.971Z" fill="#F0F2F2"/>
<path d="M44.0656 121.172H41.7408V123.129H43.9406L44.0156 122.301H45.0655V124.183H39.666V123.355L40.3909 123.229V118.311L39.666 118.16V117.332H45.0405V119.214H43.9906L43.9406 118.386H41.7408V120.118H44.0656V121.172Z" fill="#F0F2F2"/>
<path d="M53.4097 119.515H52.3848L52.2098 118.587C52.091 118.505 51.9161 118.436 51.6848 118.386C51.4474 118.323 51.2099 118.286 50.9599 118.286C50.5724 118.286 50.285 118.374 50.085 118.537C49.885 118.687 49.785 118.888 49.785 119.139C49.785 119.377 49.885 119.566 50.085 119.716C50.2975 119.867 50.6724 120.03 51.2099 120.193C51.9598 120.412 52.5222 120.695 52.9097 121.046C53.3097 121.385 53.5097 121.824 53.5097 122.376C53.5097 122.966 53.2722 123.43 52.8097 123.781C52.341 124.12 51.7348 124.283 50.9849 124.283C50.4475 124.283 49.96 124.195 49.51 124.032C49.0726 123.85 48.7164 123.606 48.4352 123.304V121.874H49.485L49.635 122.853C49.7663 122.972 49.9475 123.066 50.185 123.129C50.435 123.198 50.6974 123.229 50.9849 123.229C51.3474 123.229 51.6348 123.154 51.8348 123.003C52.0348 122.853 52.1348 122.652 52.1348 122.401C52.1348 122.138 52.041 121.924 51.8598 121.774C51.6723 121.611 51.3474 121.448 50.8849 121.297C50.0662 121.065 49.4476 120.789 49.0351 120.469C48.6164 120.155 48.4102 119.71 48.4102 119.139C48.4102 118.587 48.6414 118.135 49.1101 117.784C49.5725 117.433 50.1662 117.251 50.8849 117.232C51.4161 117.232 51.8911 117.32 52.3098 117.483C52.741 117.633 53.1097 117.847 53.4097 118.11V119.515Z" fill="#F0F2F2"/>
<path d="M62.4938 117.332V119.164H61.4439L61.3939 118.386H60.1191V123.229L60.869 123.355V124.183H58.0193V123.355L58.7692 123.229V118.386H57.5193L57.4443 119.164H56.4194V117.332H62.4938Z" fill="#F0F2F2"/>
<path d="M68.4359 117.332C69.2671 117.332 69.9483 117.602 70.4857 118.135C71.0357 118.675 71.3107 119.359 71.3107 120.193V121.322C71.3107 122.163 71.0357 122.846 70.4857 123.38C69.9483 123.919 69.2671 124.183 68.4359 124.183H65.3862V123.355L66.1112 123.229V118.311L65.3862 118.16V117.332H68.4359ZM67.461 118.386V123.129H68.3859C68.8671 123.129 69.2421 122.966 69.5108 122.627C69.7921 122.294 69.9358 121.862 69.9358 121.322V120.193C69.9358 119.66 69.7921 119.227 69.5108 118.888C69.2421 118.556 68.8671 118.386 68.3859 118.386H67.461Z" fill="#F0F2F2"/>
<path d="M238.538 120.245C238.538 119.078 238.813 118.25 239.363 117.761C239.925 117.259 240.619 117.008 241.438 117.008C241.969 117.008 242.45 117.121 242.888 117.335C243.338 117.554 243.694 117.905 243.963 118.388C244.225 118.859 244.363 119.48 244.363 120.245C244.363 121.4 244.075 122.228 243.513 122.73C242.944 123.231 242.25 123.482 241.438 123.482C240.619 123.482 239.925 123.231 239.363 122.73C238.813 122.228 238.538 121.4 238.538 120.245Z" fill="#F0F2F2"/>
<path d="M188.259 124.183V123.279L190.458 120.896C190.771 120.544 190.996 120.243 191.133 119.992C191.264 119.729 191.333 119.484 191.333 119.264C191.333 118.982 191.258 118.75 191.108 118.562C190.958 118.38 190.74 118.286 190.458 118.286C190.14 118.286 189.896 118.399 189.733 118.612C189.565 118.832 189.483 119.114 189.483 119.465H188.159L188.134 119.44C188.115 118.825 188.315 118.305 188.733 117.884C189.165 117.451 189.74 117.232 190.458 117.232C191.158 117.232 191.708 117.42 192.108 117.784C192.508 118.154 192.708 118.637 192.708 119.239C192.708 119.66 192.589 120.042 192.358 120.394C192.139 120.745 191.771 121.209 191.258 121.774L190.033 123.104V123.129H191.808L191.858 122.451H192.908V124.183H188.259Z" fill="#F0F2F2"/>
<path d="M200.727 121.523C200.727 122.426 200.515 123.116 200.102 123.58C199.683 124.051 199.127 124.283 198.427 124.283C197.709 124.283 197.14 124.051 196.727 123.58C196.309 123.116 196.103 122.426 196.103 121.523V119.992C196.103 119.089 196.309 118.405 196.727 117.935C197.14 117.47 197.702 117.232 198.402 117.232C199.115 117.232 199.683 117.47 200.102 117.935C200.515 118.405 200.727 119.089 200.727 119.992V121.523ZM199.352 119.867C199.352 119.315 199.265 118.913 199.102 118.662C198.952 118.411 198.715 118.286 198.402 118.286C198.102 118.286 197.865 118.411 197.702 118.662C197.552 118.913 197.477 119.315 197.477 119.867V121.648C197.477 122.2 197.552 122.602 197.702 122.853C197.865 123.104 198.109 123.229 198.427 123.229C198.727 123.229 198.952 123.104 199.102 122.853C199.265 122.602 199.352 122.2 199.352 121.648V119.867Z" fill="#F0F2F2"/>
<path d="M203.875 123.355L205.024 123.229V118.587H203.875V117.784L206.399 117.332V123.229L207.549 123.355V124.183H203.875V123.355Z" fill="#F0F2F2"/>
<path d="M213.429 117.232C213.679 117.232 213.91 117.257 214.129 117.307C214.341 117.357 214.56 117.426 214.779 117.508L214.554 118.512C214.354 118.449 214.166 118.399 214.004 118.361C213.835 118.33 213.641 118.311 213.429 118.311C213.029 118.311 212.704 118.461 212.454 118.763C212.204 119.064 212.079 119.503 212.079 120.067L212.104 120.093C212.254 119.942 212.442 119.829 212.679 119.741C212.91 119.641 213.166 119.591 213.454 119.591C214.066 119.591 214.554 119.81 214.904 120.243C215.254 120.682 215.429 121.234 215.429 121.899C215.429 122.589 215.21 123.154 214.779 123.606C214.341 124.057 213.791 124.283 213.129 124.283C212.392 124.283 211.804 124.045 211.354 123.555C210.904 123.054 210.679 122.37 210.679 121.498V120.293C210.679 119.327 210.929 118.574 211.429 118.035C211.942 117.502 212.61 117.232 213.429 117.232ZM213.104 120.619C212.854 120.619 212.635 120.663 212.454 120.745C212.267 120.833 212.135 120.939 212.054 121.071V121.548C212.054 122.087 212.142 122.501 212.329 122.803C212.529 123.091 212.791 123.229 213.129 123.229C213.391 123.229 213.61 123.104 213.779 122.853C213.96 122.589 214.054 122.269 214.054 121.899C214.054 121.517 213.96 121.209 213.779 120.971C213.61 120.739 213.385 120.619 213.104 120.619Z" fill="#F0F2F2"/>
</svg>
