<svg xmlns="http://www.w3.org/2000/svg" xmlns:xlink="http://www.w3.org/1999/xlink" width="500" zoomAndPan="magnify" viewBox="0 0 375 374.999991" height="500" preserveAspectRatio="xMidYMid meet" version="1.0"><defs><g/></defs><g fill="#ffffff" fill-opacity="1"><g transform="translate(95.054771, 191.439758)"><g><path d="M 24.75 -20.921875 L 27.796875 0 L 22.65625 0 L 21.046875 -11.6875 L 16.015625 0 L 13.265625 0 L 8.25 -11.75 L 6.609375 0 L 1.5 0 L 4.546875 -20.921875 L 9.0625 -20.921875 L 14.671875 -7.765625 L 20.296875 -20.921875 Z M 24.75 -20.921875 "/></g></g></g><g fill="#ffffff" fill-opacity="1"><g transform="translate(124.937744, 191.439758)"><g><path d="M 9.46875 -13.125 L 13.296875 -20.921875 L 18.890625 -20.921875 L 12.015625 -8.078125 L 12.015625 0 L 6.78125 0 L 6.78125 -8.078125 L -0.03125 -20.921875 L 5.65625 -20.921875 Z M 9.46875 -13.125 "/></g></g></g><g fill="#ffffff" fill-opacity="1"><g transform="translate(144.391603, 191.439758)"><g><path d="M 14.9375 -20.921875 L 14.9375 -16.34375 L 7.6875 -16.34375 L 7.6875 -12.171875 L 14.640625 -12.171875 L 14.640625 -7.796875 L 7.6875 -7.796875 L 7.6875 0 L 2.453125 0 L 2.453125 -20.921875 Z M 14.9375 -20.921875 "/></g></g></g><g fill="#ffffff" fill-opacity="1"><g transform="translate(161.185892, 191.439758)"><g><path d="M 7.828125 0 L 2.59375 0 L 2.59375 -20.921875 L 7.828125 -20.921875 Z M 7.828125 0 "/></g></g></g><g fill="#ffffff" fill-opacity="1"><g transform="translate(172.182908, 191.439758)"><g><path d="M 10.96875 0 L 5.734375 0 L 5.734375 -16.203125 L 0.59375 -16.203125 L 0.59375 -20.921875 L 16.046875 -20.921875 L 16.046875 -16.203125 L 10.96875 -16.203125 Z M 10.96875 0 "/></g></g></g><g fill="#ffffff" fill-opacity="1"><g transform="translate(189.425434, 191.439758)"><g><path d="M 14.9375 -20.921875 L 14.9375 -16.34375 L 7.6875 -16.34375 L 7.6875 -12.171875 L 14.640625 -12.171875 L 14.640625 -7.796875 L 7.6875 -7.796875 L 7.6875 0 L 2.453125 0 L 2.453125 -20.921875 Z M 14.9375 -20.921875 "/></g></g></g><g fill="#ffffff" fill-opacity="1"><g transform="translate(206.219718, 191.439758)"><g><path d="M 15.453125 0 L 2.453125 0 L 2.453125 -20.921875 L 7.6875 -20.921875 L 7.6875 -4.71875 L 15.453125 -4.71875 Z M 15.453125 0 "/></g></g></g><g fill="#ffffff" fill-opacity="1"><g transform="translate(222.984121, 191.439758)"><g><path d="M 12.4375 0.390625 C 10.425781 0.390625 8.554688 -0.0625 6.828125 -0.96875 C 5.109375 -1.875 3.738281 -3.15625 2.71875 -4.8125 C 1.707031 -6.46875 1.203125 -8.351562 1.203125 -10.46875 C 1.203125 -12.570312 1.707031 -14.453125 2.71875 -16.109375 C 3.738281 -17.765625 5.109375 -19.046875 6.828125 -19.953125 C 8.554688 -20.859375 10.425781 -21.3125 12.4375 -21.3125 C 14.445312 -21.3125 16.3125 -20.859375 18.03125 -19.953125 C 19.757812 -19.046875 21.128906 -17.765625 22.140625 -16.109375 C 23.160156 -14.453125 23.671875 -12.570312 23.671875 -10.46875 C 23.671875 -8.351562 23.160156 -6.46875 22.140625 -4.8125 C 21.128906 -3.15625 19.757812 -1.875 18.03125 -0.96875 C 16.3125 -0.0625 14.445312 0.390625 12.4375 0.390625 Z M 12.4375 -4.390625 C 13.550781 -4.390625 14.5625 -4.648438 15.46875 -5.171875 C 16.375 -5.691406 17.082031 -6.410156 17.59375 -7.328125 C 18.101562 -8.242188 18.359375 -9.289062 18.359375 -10.46875 C 18.359375 -11.632812 18.101562 -12.675781 17.59375 -13.59375 C 17.082031 -14.507812 16.375 -15.226562 15.46875 -15.75 C 14.5625 -16.269531 13.550781 -16.53125 12.4375 -16.53125 C 11.320312 -16.53125 10.3125 -16.269531 9.40625 -15.75 C 8.5 -15.226562 7.789062 -14.507812 7.28125 -13.59375 C 6.769531 -12.675781 6.515625 -11.632812 6.515625 -10.46875 C 6.515625 -9.289062 6.769531 -8.242188 7.28125 -7.328125 C 7.789062 -6.410156 8.5 -5.691406 9.40625 -5.171875 C 10.3125 -4.648438 11.320312 -4.390625 12.4375 -4.390625 Z M 12.4375 -4.390625 "/></g></g></g><g fill="#ffffff" fill-opacity="1"><g transform="translate(248.444432, 191.439758)"><g><path d="M 21.9375 -7.953125 L 25.640625 -20.921875 L 31.140625 -20.921875 L 24.328125 0 L 19.78125 0 L 15.75 -13.421875 L 11.6875 0 L 7.171875 0 L 0.359375 -20.921875 L 5.890625 -20.921875 L 9.59375 -8.015625 L 13.59375 -20.921875 L 17.9375 -20.921875 Z M 21.9375 -7.953125 "/></g></g></g><g fill="#ffffff" fill-opacity="1"><g transform="translate(95.496282, 210.774138)"><g><path d="M 1.484375 -5.5 L 1.484375 -3.4375 L 3.71875 -3.4375 L 3.71875 -2.78125 L 1.484375 -2.78125 L 1.484375 -0.65625 L 3.984375 -0.65625 L 3.984375 0 L 0.6875 0 L 0.6875 -6.15625 L 3.984375 -6.15625 L 3.984375 -5.5 Z M 1.484375 -5.5 "/></g></g></g><g fill="#ffffff" fill-opacity="1"><g transform="translate(106.078381, 210.774138)"><g><path d="M 5.765625 -6.15625 L 3.4375 0 L 2.515625 0 L 0.1875 -6.15625 L 1.046875 -6.15625 L 2.984375 -0.84375 L 4.921875 -6.15625 Z M 5.765625 -6.15625 "/></g></g></g><g fill="#ffffff" fill-opacity="1"><g transform="translate(118.100296, 210.774138)"><g><path d="M 1.484375 -5.5 L 1.484375 -3.4375 L 3.71875 -3.4375 L 3.71875 -2.78125 L 1.484375 -2.78125 L 1.484375 -0.65625 L 3.984375 -0.65625 L 3.984375 0 L 0.6875 0 L 0.6875 -6.15625 L 3.984375 -6.15625 L 3.984375 -5.5 Z M 1.484375 -5.5 "/></g></g></g><g fill="#ffffff" fill-opacity="1"><g transform="translate(128.682395, 210.774138)"><g><path d="M 3.921875 0 L 2.453125 -2.515625 L 1.484375 -2.515625 L 1.484375 0 L 0.6875 0 L 0.6875 -6.15625 L 2.671875 -6.15625 C 3.128906 -6.15625 3.519531 -6.070312 3.84375 -5.90625 C 4.164062 -5.75 4.40625 -5.535156 4.5625 -5.265625 C 4.71875 -4.992188 4.796875 -4.6875 4.796875 -4.34375 C 4.796875 -3.914062 4.671875 -3.539062 4.421875 -3.21875 C 4.179688 -2.894531 3.820312 -2.679688 3.34375 -2.578125 L 4.875 0 Z M 1.484375 -3.15625 L 2.671875 -3.15625 C 3.097656 -3.15625 3.421875 -3.265625 3.640625 -3.484375 C 3.859375 -3.703125 3.96875 -3.988281 3.96875 -4.34375 C 3.96875 -4.707031 3.859375 -4.988281 3.640625 -5.1875 C 3.429688 -5.382812 3.109375 -5.484375 2.671875 -5.484375 L 1.484375 -5.484375 Z M 1.484375 -3.15625 "/></g></g></g><g fill="#ffffff" fill-opacity="1"><g transform="translate(140.103651, 210.774138)"><g><path d="M 4.984375 -6.15625 L 2.984375 -2.328125 L 2.984375 0 L 2.1875 0 L 2.1875 -2.328125 L 0.171875 -6.15625 L 1.0625 -6.15625 L 2.578125 -3.03125 L 4.09375 -6.15625 Z M 4.984375 -6.15625 "/></g></g></g><g fill="#ffffff" fill-opacity="1"><g transform="translate(151.312917, 210.774138)"><g><path d="M 2.59375 -6.15625 C 3.269531 -6.15625 3.851562 -6.03125 4.34375 -5.78125 C 4.832031 -5.53125 5.207031 -5.171875 5.46875 -4.703125 C 5.726562 -4.242188 5.859375 -3.695312 5.859375 -3.0625 C 5.859375 -2.4375 5.726562 -1.890625 5.46875 -1.421875 C 5.207031 -0.960938 4.832031 -0.609375 4.34375 -0.359375 C 3.851562 -0.117188 3.269531 0 2.59375 0 L 0.6875 0 L 0.6875 -6.15625 Z M 2.59375 -0.65625 C 3.382812 -0.65625 3.988281 -0.863281 4.40625 -1.28125 C 4.832031 -1.707031 5.046875 -2.300781 5.046875 -3.0625 C 5.046875 -3.832031 4.832031 -4.429688 4.40625 -4.859375 C 3.988281 -5.285156 3.382812 -5.5 2.59375 -5.5 L 1.484375 -5.5 L 1.484375 -0.65625 Z M 2.59375 -0.65625 "/></g></g></g><g fill="#ffffff" fill-opacity="1"><g transform="translate(163.608654, 210.774138)"><g><path d="M 4.3125 -1.375 L 1.640625 -1.375 L 1.140625 0 L 0.296875 0 L 2.515625 -6.125 L 3.4375 -6.125 L 5.65625 0 L 4.8125 0 Z M 4.09375 -2.015625 L 2.96875 -5.125 L 1.859375 -2.015625 Z M 4.09375 -2.015625 "/></g></g></g><g fill="#ffffff" fill-opacity="1"><g transform="translate(175.612901, 210.774138)"><g><path d="M 4.984375 -6.15625 L 2.984375 -2.328125 L 2.984375 0 L 2.1875 0 L 2.1875 -2.328125 L 0.171875 -6.15625 L 1.0625 -6.15625 L 2.578125 -3.03125 L 4.09375 -6.15625 Z M 4.984375 -6.15625 "/></g></g></g><g fill="#ffffff" fill-opacity="1"><g transform="translate(186.822166, 210.774138)"><g/></g></g><g fill="#ffffff" fill-opacity="1"><g transform="translate(195.231311, 210.774138)"><g><path d="M 8.40625 -6.15625 L 6.625 0 L 5.734375 0 L 4.296875 -4.953125 L 2.8125 0 L 1.921875 0.015625 L 0.203125 -6.15625 L 1.0625 -6.15625 L 2.40625 -0.9375 L 3.890625 -6.15625 L 4.78125 -6.15625 L 6.203125 -0.953125 L 7.546875 -6.15625 Z M 8.40625 -6.15625 "/></g></g></g><g fill="#ffffff" fill-opacity="1"><g transform="translate(209.903176, 210.774138)"><g><path d="M 1.484375 -5.5 L 1.484375 -3.4375 L 3.71875 -3.4375 L 3.71875 -2.78125 L 1.484375 -2.78125 L 1.484375 -0.65625 L 3.984375 -0.65625 L 3.984375 0 L 0.6875 0 L 0.6875 -6.15625 L 3.984375 -6.15625 L 3.984375 -5.5 Z M 1.484375 -5.5 "/></g></g></g><g fill="#ffffff" fill-opacity="1"><g transform="translate(220.485276, 210.774138)"><g><path d="M 1.484375 -0.65625 L 3.640625 -0.65625 L 3.640625 0 L 0.6875 0 L 0.6875 -6.15625 L 1.484375 -6.15625 Z M 1.484375 -0.65625 "/></g></g></g><g fill="#ffffff" fill-opacity="1"><g transform="translate(230.351893, 210.774138)"><g><path d="M 1.484375 -0.65625 L 3.640625 -0.65625 L 3.640625 0 L 0.6875 0 L 0.6875 -6.15625 L 1.484375 -6.15625 Z M 1.484375 -0.65625 "/></g></g></g><g fill="#ffffff" fill-opacity="1"><g transform="translate(240.21851, 210.774138)"><g><path d="M 5.515625 0 L 4.71875 0 L 1.484375 -4.90625 L 1.484375 0 L 0.6875 0 L 0.6875 -6.15625 L 1.484375 -6.15625 L 4.71875 -1.265625 L 4.71875 -6.15625 L 5.515625 -6.15625 Z M 5.515625 0 "/></g></g></g><g fill="#ffffff" fill-opacity="1"><g transform="translate(252.478922, 210.774138)"><g><path d="M 1.484375 -5.5 L 1.484375 -3.4375 L 3.71875 -3.4375 L 3.71875 -2.78125 L 1.484375 -2.78125 L 1.484375 -0.65625 L 3.984375 -0.65625 L 3.984375 0 L 0.6875 0 L 0.6875 -6.15625 L 3.984375 -6.15625 L 3.984375 -5.5 Z M 1.484375 -5.5 "/></g></g></g><g fill="#ffffff" fill-opacity="1"><g transform="translate(263.061022, 210.774138)"><g><path d="M 2.625 0.0625 C 2.21875 0.0625 1.851562 -0.0078125 1.53125 -0.15625 C 1.21875 -0.300781 0.96875 -0.5 0.78125 -0.75 C 0.601562 -1.007812 0.507812 -1.304688 0.5 -1.640625 L 1.359375 -1.640625 C 1.390625 -1.347656 1.507812 -1.101562 1.71875 -0.90625 C 1.925781 -0.71875 2.226562 -0.625 2.625 -0.625 C 3.007812 -0.625 3.3125 -0.71875 3.53125 -0.90625 C 3.75 -1.09375 3.859375 -1.335938 3.859375 -1.640625 C 3.859375 -1.878906 3.796875 -2.070312 3.671875 -2.21875 C 3.546875 -2.363281 3.382812 -2.472656 3.1875 -2.546875 C 2.988281 -2.628906 2.726562 -2.710938 2.40625 -2.796875 C 2 -2.898438 1.671875 -3.003906 1.421875 -3.109375 C 1.179688 -3.222656 0.972656 -3.390625 0.796875 -3.609375 C 0.617188 -3.835938 0.53125 -4.144531 0.53125 -4.53125 C 0.53125 -4.863281 0.613281 -5.160156 0.78125 -5.421875 C 0.957031 -5.679688 1.203125 -5.878906 1.515625 -6.015625 C 1.828125 -6.160156 2.179688 -6.234375 2.578125 -6.234375 C 3.148438 -6.234375 3.617188 -6.085938 3.984375 -5.796875 C 4.359375 -5.515625 4.566406 -5.132812 4.609375 -4.65625 L 3.734375 -4.65625 C 3.703125 -4.882812 3.578125 -5.085938 3.359375 -5.265625 C 3.140625 -5.453125 2.851562 -5.546875 2.5 -5.546875 C 2.164062 -5.546875 1.890625 -5.457031 1.671875 -5.28125 C 1.460938 -5.101562 1.359375 -4.863281 1.359375 -4.5625 C 1.359375 -4.332031 1.421875 -4.144531 1.546875 -4 C 1.671875 -3.863281 1.828125 -3.757812 2.015625 -3.6875 C 2.203125 -3.613281 2.460938 -3.53125 2.796875 -3.4375 C 3.203125 -3.320312 3.53125 -3.207031 3.78125 -3.09375 C 4.03125 -2.988281 4.238281 -2.820312 4.40625 -2.59375 C 4.582031 -2.375 4.671875 -2.066406 4.671875 -1.671875 C 4.671875 -1.378906 4.59375 -1.097656 4.4375 -0.828125 C 4.28125 -0.566406 4.046875 -0.351562 3.734375 -0.1875 C 3.421875 -0.0195312 3.050781 0.0625 2.625 0.0625 Z M 2.625 0.0625 "/></g></g></g><g fill="#ffffff" fill-opacity="1"><g transform="translate(274.296783, 210.774138)"><g><path d="M 2.625 0.0625 C 2.21875 0.0625 1.851562 -0.0078125 1.53125 -0.15625 C 1.21875 -0.300781 0.96875 -0.5 0.78125 -0.75 C 0.601562 -1.007812 0.507812 -1.304688 0.5 -1.640625 L 1.359375 -1.640625 C 1.390625 -1.347656 1.507812 -1.101562 1.71875 -0.90625 C 1.925781 -0.71875 2.226562 -0.625 2.625 -0.625 C 3.007812 -0.625 3.3125 -0.71875 3.53125 -0.90625 C 3.75 -1.09375 3.859375 -1.335938 3.859375 -1.640625 C 3.859375 -1.878906 3.796875 -2.070312 3.671875 -2.21875 C 3.546875 -2.363281 3.382812 -2.472656 3.1875 -2.546875 C 2.988281 -2.628906 2.726562 -2.710938 2.40625 -2.796875 C 2 -2.898438 1.671875 -3.003906 1.421875 -3.109375 C 1.179688 -3.222656 0.972656 -3.390625 0.796875 -3.609375 C 0.617188 -3.835938 0.53125 -4.144531 0.53125 -4.53125 C 0.53125 -4.863281 0.613281 -5.160156 0.78125 -5.421875 C 0.957031 -5.679688 1.203125 -5.878906 1.515625 -6.015625 C 1.828125 -6.160156 2.179688 -6.234375 2.578125 -6.234375 C 3.148438 -6.234375 3.617188 -6.085938 3.984375 -5.796875 C 4.359375 -5.515625 4.566406 -5.132812 4.609375 -4.65625 L 3.734375 -4.65625 C 3.703125 -4.882812 3.578125 -5.085938 3.359375 -5.265625 C 3.140625 -5.453125 2.851562 -5.546875 2.5 -5.546875 C 2.164062 -5.546875 1.890625 -5.457031 1.671875 -5.28125 C 1.460938 -5.101562 1.359375 -4.863281 1.359375 -4.5625 C 1.359375 -4.332031 1.421875 -4.144531 1.546875 -4 C 1.671875 -3.863281 1.828125 -3.757812 2.015625 -3.6875 C 2.203125 -3.613281 2.460938 -3.53125 2.796875 -3.4375 C 3.203125 -3.320312 3.53125 -3.207031 3.78125 -3.09375 C 4.03125 -2.988281 4.238281 -2.820312 4.40625 -2.59375 C 4.582031 -2.375 4.671875 -2.066406 4.671875 -1.671875 C 4.671875 -1.378906 4.59375 -1.097656 4.4375 -0.828125 C 4.28125 -0.566406 4.046875 -0.351562 3.734375 -0.1875 C 3.421875 -0.0195312 3.050781 0.0625 2.625 0.0625 Z M 2.625 0.0625 "/></g></g></g></svg>