<svg xmlns="http://www.w3.org/2000/svg" xmlns:xlink="http://www.w3.org/1999/xlink" width="500" zoomAndPan="magnify" viewBox="0 0 375 374.999991" height="500" preserveAspectRatio="xMidYMid meet" version="1.0"><defs><g/></defs><g fill="#ffffff" fill-opacity="1"><g transform="translate(95.054771, 191.439772)"><g><path d="M 24.75 -20.921875 L 27.796875 0 L 22.65625 0 L 21.046875 -11.6875 L 16.015625 0 L 13.265625 0 L 8.25 -11.75 L 6.609375 0 L 1.5 0 L 4.546875 -20.921875 L 9.0625 -20.921875 L 14.671875 -7.765625 L 20.296875 -20.921875 Z M 24.75 -20.921875 "/></g></g></g><g fill="#ffffff" fill-opacity="1"><g transform="translate(124.937744, 191.439772)"><g><path d="M 9.46875 -13.125 L 13.296875 -20.921875 L 18.890625 -20.921875 L 12.015625 -8.078125 L 12.015625 0 L 6.78125 0 L 6.78125 -8.078125 L -0.03125 -20.921875 L 5.65625 -20.921875 Z M 9.46875 -13.125 "/></g></g></g><g fill="#ffffff" fill-opacity="1"><g transform="translate(144.391603, 191.439772)"><g><path d="M 14.9375 -20.921875 L 14.9375 -16.34375 L 7.6875 -16.34375 L 7.6875 -12.171875 L 14.640625 -12.171875 L 14.640625 -7.796875 L 7.6875 -7.796875 L 7.6875 0 L 2.453125 0 L 2.453125 -20.921875 Z M 14.9375 -20.921875 "/></g></g></g><g fill="#ffffff" fill-opacity="1"><g transform="translate(161.185892, 191.439772)"><g><path d="M 7.828125 0 L 2.59375 0 L 2.59375 -20.921875 L 7.828125 -20.921875 Z M 7.828125 0 "/></g></g></g><g fill="#ffffff" fill-opacity="1"><g transform="translate(172.182908, 191.439772)"><g><path d="M 10.96875 0 L 5.734375 0 L 5.734375 -16.203125 L 0.59375 -16.203125 L 0.59375 -20.921875 L 16.046875 -20.921875 L 16.046875 -16.203125 L 10.96875 -16.203125 Z M 10.96875 0 "/></g></g></g><g fill="#ffffff" fill-opacity="1"><g transform="translate(189.425434, 191.439772)"><g><path d="M 14.9375 -20.921875 L 14.9375 -16.34375 L 7.6875 -16.34375 L 7.6875 -12.171875 L 14.640625 -12.171875 L 14.640625 -7.796875 L 7.6875 -7.796875 L 7.6875 0 L 2.453125 0 L 2.453125 -20.921875 Z M 14.9375 -20.921875 "/></g></g></g><g fill="#ffffff" fill-opacity="1"><g transform="translate(206.219718, 191.439772)"><g><path d="M 15.453125 0 L 2.453125 0 L 2.453125 -20.921875 L 7.6875 -20.921875 L 7.6875 -4.71875 L 15.453125 -4.71875 Z M 15.453125 0 "/></g></g></g><g fill="#ffffff" fill-opacity="1"><g transform="translate(222.984121, 191.439772)"><g><path d="M 12.4375 0.390625 C 10.425781 0.390625 8.554688 -0.0625 6.828125 -0.96875 C 5.109375 -1.875 3.738281 -3.15625 2.71875 -4.8125 C 1.707031 -6.46875 1.203125 -8.351562 1.203125 -10.46875 C 1.203125 -12.570312 1.707031 -14.453125 2.71875 -16.109375 C 3.738281 -17.765625 5.109375 -19.046875 6.828125 -19.953125 C 8.554688 -20.859375 10.425781 -21.3125 12.4375 -21.3125 C 14.445312 -21.3125 16.3125 -20.859375 18.03125 -19.953125 C 19.757812 -19.046875 21.128906 -17.765625 22.140625 -16.109375 C 23.160156 -14.453125 23.671875 -12.570312 23.671875 -10.46875 C 23.671875 -8.351562 23.160156 -6.46875 22.140625 -4.8125 C 21.128906 -3.15625 19.757812 -1.875 18.03125 -0.96875 C 16.3125 -0.0625 14.445312 0.390625 12.4375 0.390625 Z M 12.4375 -4.390625 C 13.550781 -4.390625 14.5625 -4.648438 15.46875 -5.171875 C 16.375 -5.691406 17.082031 -6.410156 17.59375 -7.328125 C 18.101562 -8.242188 18.359375 -9.289062 18.359375 -10.46875 C 18.359375 -11.632812 18.101562 -12.675781 17.59375 -13.59375 C 17.082031 -14.507812 16.375 -15.226562 15.46875 -15.75 C 14.5625 -16.269531 13.550781 -16.53125 12.4375 -16.53125 C 11.320312 -16.53125 10.3125 -16.269531 9.40625 -15.75 C 8.5 -15.226562 7.789062 -14.507812 7.28125 -13.59375 C 6.769531 -12.675781 6.515625 -11.632812 6.515625 -10.46875 C 6.515625 -9.289062 6.769531 -8.242188 7.28125 -7.328125 C 7.789062 -6.410156 8.5 -5.691406 9.40625 -5.171875 C 10.3125 -4.648438 11.320312 -4.390625 12.4375 -4.390625 Z M 12.4375 -4.390625 "/></g></g></g><g fill="#ffffff" fill-opacity="1"><g transform="translate(248.444432, 191.439772)"><g><path d="M 21.9375 -7.953125 L 25.640625 -20.921875 L 31.140625 -20.921875 L 24.328125 0 L 19.78125 0 L 15.75 -13.421875 L 11.6875 0 L 7.171875 0 L 0.359375 -20.921875 L 5.890625 -20.921875 L 9.59375 -8.015625 L 13.59375 -20.921875 L 17.9375 -20.921875 Z M 21.9375 -7.953125 "/></g></g></g></svg>