<svg width="383" height="383" viewBox="0 0 383 383" fill="none" xmlns="http://www.w3.org/2000/svg">
<path d="M250.554 230.711C257.734 237.356 263.558 245.009 268.027 253.668C268.229 254.059 268.378 254.447 268.475 254.832C268.492 254.9 268.486 254.971 268.459 255.036C268.431 255.1 268.383 255.153 268.322 255.187L257.343 261.335C257.314 261.351 257.282 261.361 257.248 261.363C257.215 261.366 257.181 261.362 257.149 261.351C257.117 261.34 257.088 261.323 257.063 261.3C257.038 261.278 257.018 261.25 257.004 261.219C254.635 256 251.71 251.121 247.946 246.685C244.822 242.999 241.39 239.633 237.65 236.587C237.598 236.194 237.626 235.839 237.736 235.523C237.762 235.449 237.813 235.385 237.88 235.344C237.947 235.302 238.027 235.285 238.105 235.296L239.008 235.415C239.038 235.418 239.055 235.434 239.06 235.464C239.07 235.498 239.062 235.528 239.038 235.553C238.993 235.598 238.992 235.645 239.034 235.695C239.071 235.737 239.115 235.76 239.164 235.762C239.192 235.765 239.205 235.752 239.205 235.725V235.49C239.205 235.365 239.261 235.276 239.373 235.221C239.595 235.112 239.82 235.083 240.049 235.135C240.195 235.168 240.332 235.145 240.459 235.068C240.643 234.959 240.852 234.902 241.086 234.897C241.334 234.894 241.586 234.851 241.839 234.766C242.871 234.425 243.814 234.08 244.667 233.729C244.734 233.702 244.798 233.707 244.857 233.744C244.944 233.799 245.024 233.787 245.096 233.71C245.419 233.362 245.842 233.106 246.364 232.942C246.71 232.832 247.027 232.694 247.316 232.528C247.671 232.324 248.063 232.192 248.491 232.132C248.59 232.12 248.669 232.073 248.726 231.991C248.85 231.812 249.009 231.676 249.203 231.584C249.277 231.549 249.339 231.492 249.38 231.422C249.421 231.351 249.44 231.27 249.434 231.189C249.422 231.017 249.499 230.941 249.666 230.961C249.855 230.983 249.896 230.916 249.789 230.76C249.754 230.707 249.735 230.65 249.733 230.588C249.731 230.558 249.736 230.528 249.748 230.501C249.759 230.473 249.777 230.449 249.8 230.429C249.823 230.41 249.85 230.397 249.879 230.39C249.909 230.383 249.939 230.383 249.968 230.39C250.112 230.425 250.184 230.502 250.184 230.622C250.184 230.756 250.249 230.803 250.378 230.763L250.554 230.711Z" fill="white"/>
<path d="M130.215 232.786C130.355 233.141 130.639 233.243 131.07 233.092C131.346 232.992 131.597 233.031 131.823 233.207C131.917 233.277 132.032 233.311 132.148 233.304C132.829 233.254 133.481 233.327 134.103 233.521C134.625 233.685 135.145 233.817 135.662 233.916C135.783 233.938 135.894 233.997 135.979 234.084C136.462 234.566 137.062 234.871 137.781 234.998C138.074 235.05 138.277 235.205 138.389 235.464C138.441 235.584 138.508 235.592 138.59 235.49C138.608 235.47 138.628 235.467 138.65 235.479C138.692 235.499 138.722 235.53 138.74 235.572C138.755 235.607 138.761 235.643 138.758 235.681C138.751 235.735 138.771 235.779 138.818 235.811C138.92 235.881 139.008 235.858 139.083 235.744C139.085 235.741 139.087 235.738 139.09 235.736C139.093 235.734 139.097 235.732 139.1 235.732C139.104 235.732 139.108 235.732 139.111 235.734C139.115 235.735 139.118 235.737 139.12 235.74C139.284 235.964 139.484 236.169 139.721 236.356C139.9 236.5 140.099 236.594 140.318 236.639C140.872 236.759 141.429 236.904 141.989 237.076C142.083 237.106 142.18 237.113 142.28 237.098C142.571 237.056 142.795 237.178 142.951 237.464C142.956 237.476 142.966 237.484 142.981 237.486C143.128 237.511 143.165 237.593 143.093 237.732C143.011 237.889 143.055 238.026 143.224 238.143C135.897 244.481 129.992 252.076 126.101 261.007C126.084 261.045 126.06 261.079 126.029 261.107C125.999 261.135 125.963 261.157 125.924 261.171C125.884 261.184 125.843 261.19 125.801 261.186C125.76 261.183 125.72 261.172 125.683 261.152L114.469 255.105C114.345 255.038 114.314 254.941 114.376 254.814C118.459 246.542 123.739 239.2 130.215 232.786Z" fill="white"/>
<path d="M250.553 230.711L250.378 230.764C250.249 230.803 250.184 230.756 250.184 230.622C250.184 230.502 250.112 230.425 249.968 230.39C249.939 230.383 249.908 230.383 249.879 230.39C249.85 230.397 249.823 230.41 249.8 230.43C249.777 230.449 249.759 230.473 249.747 230.501C249.736 230.528 249.731 230.558 249.733 230.588C249.735 230.65 249.754 230.708 249.789 230.76C249.896 230.916 249.855 230.984 249.666 230.961C249.499 230.941 249.422 231.017 249.434 231.189C249.44 231.27 249.421 231.352 249.38 231.422C249.338 231.493 249.277 231.549 249.203 231.584C249.009 231.676 248.85 231.812 248.726 231.991C248.668 232.073 248.59 232.12 248.491 232.133C248.063 232.192 247.671 232.324 247.315 232.528C247.027 232.695 246.71 232.833 246.364 232.942C245.842 233.106 245.419 233.362 245.096 233.711C245.024 233.788 244.944 233.799 244.857 233.744C244.797 233.707 244.734 233.702 244.667 233.729C243.814 234.08 242.871 234.426 241.839 234.766C241.585 234.851 241.334 234.894 241.085 234.897C240.852 234.902 240.643 234.959 240.459 235.068C240.332 235.146 240.195 235.168 240.048 235.136C239.82 235.083 239.595 235.112 239.373 235.221C239.261 235.276 239.205 235.366 239.205 235.49V235.725C239.205 235.752 239.192 235.765 239.164 235.762C239.115 235.76 239.071 235.737 239.034 235.695C238.991 235.645 238.993 235.598 239.037 235.553C239.062 235.529 239.07 235.499 239.06 235.464C239.055 235.434 239.037 235.418 239.008 235.415L238.105 235.296C238.026 235.286 237.947 235.303 237.88 235.344C237.812 235.386 237.761 235.449 237.736 235.524C237.626 235.839 237.597 236.194 237.65 236.587C227.036 228.134 213.86 222.057 200.289 220.654C189.65 219.552 179.504 220.418 169.852 223.25C160.018 226.138 151.166 231.207 143.224 238.142C143.054 238.026 143.011 237.889 143.093 237.732C143.165 237.593 143.128 237.511 142.981 237.486C142.966 237.483 142.956 237.476 142.951 237.463C142.795 237.177 142.571 237.056 142.28 237.098C142.18 237.113 142.083 237.105 141.989 237.075C141.429 236.904 140.872 236.758 140.318 236.639C140.099 236.594 139.9 236.5 139.721 236.356C139.484 236.169 139.284 235.964 139.12 235.74C139.118 235.737 139.115 235.735 139.111 235.733C139.108 235.732 139.104 235.731 139.1 235.732C139.097 235.732 139.093 235.733 139.09 235.735C139.087 235.738 139.084 235.74 139.083 235.744C139.008 235.858 138.92 235.881 138.818 235.811C138.771 235.779 138.751 235.735 138.758 235.68C138.761 235.643 138.754 235.607 138.74 235.572C138.722 235.53 138.692 235.499 138.65 235.479C138.628 235.466 138.608 235.47 138.59 235.49C138.508 235.592 138.441 235.583 138.389 235.464C138.277 235.205 138.074 235.05 137.781 234.998C137.062 234.871 136.461 234.566 135.979 234.084C135.894 233.996 135.783 233.938 135.662 233.916C135.145 233.816 134.625 233.684 134.103 233.52C133.481 233.326 132.829 233.254 132.148 233.304C132.032 233.311 131.917 233.277 131.823 233.207C131.597 233.03 131.346 232.992 131.07 233.091C130.639 233.243 130.355 233.141 130.215 232.785C136.754 226.16 144.051 220.807 152.106 216.726C157.015 214.239 162.371 212.119 168.173 210.365C172.282 209.122 177.351 208.199 183.382 207.597C191.127 206.818 198.875 207.06 206.5 208.563C222.981 211.813 238.258 219.199 250.553 230.711Z" fill="white"/>
<path d="M236.751 172.792C228.131 181.623 218.516 189.165 207.907 195.417C203.137 198.227 198.189 200.579 193.063 202.471C192.081 202.832 191.054 202.797 189.982 202.367C181.442 198.93 173.849 194.953 167.204 190.437C161.697 186.697 156.196 182.304 150.7 177.261C150.767 177.164 150.797 177.056 150.789 176.936C150.774 176.717 150.839 176.683 150.983 176.832C150.991 176.842 150.996 176.853 150.998 176.865C151.018 177.007 151.095 177.051 151.23 176.996C151.354 176.944 151.467 176.956 151.569 177.033C151.644 177.091 151.707 177.081 151.759 177.003L152.106 176.485C152.188 176.361 152.304 176.311 152.453 176.336C152.854 176.41 153.192 176.301 153.468 176.007C153.513 175.959 153.569 175.922 153.631 175.898C153.693 175.875 153.76 175.865 153.826 175.869C154.134 175.892 154.428 175.826 154.706 175.672C154.785 175.628 154.872 175.602 154.96 175.597C155.915 175.545 156.792 175.153 157.59 174.422C157.632 174.385 157.684 174.361 157.739 174.355C157.794 174.348 157.85 174.358 157.9 174.385C158.079 174.487 158.223 174.456 158.332 174.291C158.377 174.222 158.438 174.171 158.515 174.138L160.947 173.105C161.054 173.058 161.139 172.984 161.201 172.885C161.385 172.579 161.656 172.486 162.014 172.605C162.096 172.633 162.152 172.605 162.182 172.523C162.225 172.404 162.3 172.301 162.41 172.214C162.509 172.136 162.619 172.117 162.738 172.154L163.988 172.557C165.848 174.054 167.734 175.534 169.647 176.996C174.397 180.627 179.488 183.7 184.92 186.214C187.123 187.234 189.273 188.251 191.37 189.266C191.608 189.382 191.848 189.387 192.09 189.28C193.532 188.659 194.967 188 196.395 187.303C205.972 182.618 214.625 176.619 222.355 169.307C222.758 169.561 223.199 169.345 223.679 168.658C223.806 168.477 223.908 168.49 223.985 168.699C224 168.737 224.011 168.775 224.019 168.815C224.066 169.049 224.18 169.09 224.362 168.938C224.471 168.846 224.576 168.861 224.675 168.983C224.701 169.015 224.733 169.041 224.769 169.059C224.805 169.078 224.844 169.089 224.884 169.091L226.231 169.166C226.348 169.173 226.457 169.204 226.559 169.259C226.843 169.413 227.159 169.493 227.507 169.498C227.657 169.5 227.804 169.551 227.925 169.643C228.377 169.986 228.851 170.24 229.346 170.404C229.45 170.439 229.531 170.504 229.588 170.598C229.743 170.849 229.978 170.959 230.294 170.927C230.458 170.912 230.568 170.981 230.626 171.135L230.674 171.27C230.716 171.392 230.802 171.446 230.931 171.434C231.173 171.409 231.377 171.484 231.543 171.658C231.64 171.757 231.757 171.796 231.894 171.773C232.16 171.729 232.42 171.757 232.674 171.859C232.877 171.944 233.089 171.986 233.308 171.986C233.788 171.988 234.276 172.059 234.774 172.199C235.112 172.293 235.355 172.513 235.501 172.859C235.515 172.892 235.536 172.921 235.562 172.946C235.588 172.971 235.618 172.99 235.651 173.003C235.685 173.016 235.72 173.022 235.756 173.021C235.792 173.02 235.827 173.012 235.859 172.997C236.046 172.91 236.098 172.804 236.016 172.68C235.872 172.456 235.907 172.422 236.121 172.579C236.168 172.611 236.213 172.645 236.255 172.68C236.407 172.807 236.496 172.773 236.523 172.579C236.536 172.49 236.515 172.409 236.46 172.337C236.323 172.155 236.351 172.126 236.542 172.251C236.739 172.378 236.808 172.558 236.751 172.792Z" fill="white"/>
<path d="M209.914 138.941C212.224 142.077 213.704 145.36 214.353 148.79C215.109 152.796 214.712 156.798 213.163 160.794C210.805 166.886 205.747 171.426 199.838 174.097C189.541 178.757 178.369 173.579 172.277 164.849C168.653 159.659 167.454 153.927 168.681 147.652C168.807 147.724 168.922 147.769 169.024 147.786C169.173 147.811 169.23 147.75 169.195 147.603C169.131 147.332 169.234 147.15 169.505 147.055C169.599 147.023 169.608 146.974 169.531 146.91C169.407 146.805 169.312 146.67 169.248 146.503C169.208 146.398 169.243 146.338 169.352 146.32C169.558 146.288 169.663 146.154 169.665 145.917C169.665 145.716 169.714 145.703 169.811 145.88L169.93 146.1C169.997 146.219 170.094 146.253 170.221 146.201C170.373 146.139 170.531 146.109 170.695 146.111C170.806 146.111 170.916 146.133 171.018 146.175C171.121 146.217 171.214 146.279 171.292 146.357C171.613 146.676 171.997 146.844 172.445 146.861C172.997 146.883 173.523 146.994 174.023 147.193C174.378 147.335 174.746 147.4 175.127 147.387C176.296 147.35 177.425 147.373 178.514 147.458C179.002 147.495 179.523 147.59 180.077 147.741C180.209 147.776 180.338 147.773 180.465 147.73C180.948 147.574 181.375 147.688 181.748 148.073C181.487 148.675 181.271 149.29 181.099 149.916C180.435 152.369 180.658 154.685 181.767 156.866C184.908 163.044 192.421 165.215 198.013 160.78C203.363 156.53 203.273 149.208 198.375 144.608C198.641 144.469 198.891 144.337 199.125 144.212C199.177 144.183 199.232 144.174 199.289 144.186C199.322 144.194 199.349 144.209 199.371 144.231C199.386 144.244 199.401 144.247 199.416 144.242L201.057 143.746C201.144 143.721 201.228 143.686 201.307 143.642C201.713 143.423 202.113 143.251 202.509 143.127C202.635 143.087 202.638 143.042 202.516 142.993C202.481 142.98 202.479 142.952 202.509 142.907C202.514 142.897 202.522 142.889 202.535 142.884C203.216 142.663 203.818 142.275 204.34 141.72C204.584 141.464 204.854 141.224 205.15 141C205.481 140.752 205.774 140.466 206.03 140.142C206.257 139.861 206.531 139.764 206.855 139.851C206.972 139.881 207.057 139.844 207.112 139.74L207.317 139.34C207.362 139.256 207.43 139.215 207.522 139.217C207.567 139.217 207.607 139.231 207.642 139.258C207.754 139.34 207.871 139.347 207.992 139.277C208.179 139.173 208.26 139.02 208.235 138.818C208.21 138.622 208.296 138.509 208.492 138.479C208.84 138.426 209.314 138.581 209.914 138.941Z" fill="white"/>
<path d="M142.56 150.04C148.884 158.321 156.027 165.827 163.988 172.557L162.738 172.154C162.619 172.117 162.509 172.137 162.41 172.214C162.3 172.301 162.224 172.404 162.182 172.523C162.152 172.605 162.096 172.633 162.014 172.605C161.656 172.486 161.385 172.579 161.201 172.885C161.139 172.985 161.054 173.058 160.947 173.105L158.515 174.139C158.438 174.171 158.377 174.222 158.332 174.292C158.223 174.456 158.079 174.487 157.899 174.385C157.85 174.359 157.794 174.348 157.739 174.355C157.683 174.361 157.631 174.385 157.59 174.422C156.792 175.153 155.915 175.545 154.96 175.597C154.872 175.602 154.785 175.628 154.706 175.672C154.428 175.826 154.134 175.892 153.826 175.87C153.759 175.865 153.693 175.875 153.631 175.899C153.569 175.922 153.513 175.96 153.468 176.008C153.192 176.301 152.853 176.41 152.453 176.336C152.304 176.311 152.188 176.361 152.106 176.485L151.759 177.004C151.707 177.081 151.643 177.091 151.569 177.033C151.467 176.956 151.354 176.944 151.229 176.996C151.095 177.051 151.018 177.007 150.998 176.866C150.996 176.853 150.991 176.842 150.983 176.832C150.839 176.683 150.774 176.718 150.789 176.936C150.797 177.056 150.767 177.164 150.7 177.261C143.127 170.3 136.283 162.672 130.167 154.378C130.177 154.319 130.174 154.256 130.16 154.192C130.149 154.145 130.157 154.097 130.181 154.056C130.205 154.015 130.244 153.985 130.29 153.972C130.32 153.962 130.352 153.954 130.387 153.949C130.419 153.944 130.447 153.954 130.469 153.979C130.638 154.166 130.835 154.304 131.059 154.393C131.178 154.44 131.225 154.402 131.2 154.277C131.188 154.225 131.162 154.184 131.122 154.154C130.968 154.045 130.974 153.95 131.141 153.871C131.248 153.819 131.35 153.755 131.447 153.681C131.573 153.586 131.69 153.597 131.797 153.714C131.877 153.804 131.961 153.811 132.051 153.737C132.123 153.674 132.206 153.637 132.301 153.625L133.301 153.494C133.437 153.477 133.558 153.424 133.662 153.337C133.978 153.069 134.328 152.971 134.711 153.043C134.785 153.055 134.835 153.025 134.86 152.953C134.877 152.908 134.908 152.879 134.953 152.864C135.53 152.695 136.111 152.499 136.695 152.278C137.356 152.032 137.665 151.513 138.449 151.539C138.658 151.547 138.686 151.624 138.534 151.771C138.505 151.8 138.486 151.837 138.479 151.879C138.456 152.003 138.495 152.026 138.594 151.946C138.721 151.841 138.87 151.766 139.042 151.718C139.171 151.681 139.269 151.603 139.337 151.483C139.508 151.168 139.773 151.029 140.131 151.069C140.226 151.082 140.3 151.048 140.355 150.969C140.432 150.849 140.543 150.792 140.687 150.797C140.799 150.802 140.901 150.771 140.993 150.704C141.331 150.455 141.475 150.132 141.426 149.734C141.403 149.557 141.477 149.497 141.646 149.555C141.775 149.597 141.837 149.684 141.832 149.816C141.825 149.963 141.896 150.037 142.045 150.04H142.56Z" fill="white"/>
<path d="M252.684 154.21C247.817 160.776 242.506 166.97 236.751 172.792C236.808 172.558 236.738 172.377 236.542 172.251C236.35 172.126 236.323 172.155 236.46 172.336C236.515 172.409 236.536 172.489 236.523 172.579C236.496 172.773 236.406 172.806 236.255 172.68C236.212 172.645 236.168 172.611 236.12 172.579C235.906 172.422 235.872 172.456 236.016 172.68C236.098 172.804 236.046 172.91 235.859 172.997C235.827 173.012 235.792 173.02 235.756 173.021C235.72 173.022 235.684 173.016 235.651 173.003C235.618 172.99 235.587 172.971 235.562 172.946C235.536 172.921 235.515 172.892 235.501 172.859C235.354 172.513 235.112 172.293 234.774 172.198C234.276 172.059 233.788 171.988 233.308 171.986C233.089 171.986 232.877 171.944 232.673 171.859C232.42 171.757 232.16 171.728 231.894 171.773C231.757 171.796 231.64 171.757 231.543 171.658C231.376 171.483 231.172 171.409 230.931 171.434C230.802 171.446 230.716 171.391 230.674 171.27L230.625 171.135C230.568 170.981 230.457 170.911 230.293 170.926C229.977 170.959 229.742 170.849 229.588 170.598C229.531 170.504 229.45 170.439 229.346 170.404C228.851 170.24 228.377 169.986 227.924 169.643C227.803 169.551 227.657 169.5 227.507 169.498C227.158 169.493 226.843 169.413 226.559 169.259C226.457 169.204 226.348 169.173 226.231 169.166L224.884 169.091C224.844 169.089 224.805 169.078 224.769 169.059C224.733 169.041 224.701 169.015 224.675 168.983C224.576 168.861 224.471 168.846 224.362 168.938C224.18 169.09 224.066 169.049 224.019 168.815C224.011 168.775 224 168.737 223.985 168.699C223.908 168.49 223.806 168.477 223.679 168.658C223.199 169.345 222.758 169.561 222.355 169.307C228.46 163.687 234.075 157.648 239.198 151.192C239.509 151.458 239.729 151.295 239.858 150.703C239.882 150.598 239.936 150.503 240.013 150.428C240.091 150.354 240.189 150.304 240.295 150.286C240.611 150.226 240.775 150.319 240.787 150.565C240.797 150.797 240.908 150.86 241.119 150.756C241.132 150.748 241.14 150.752 241.145 150.767C241.193 150.933 241.304 151.007 241.481 150.987C241.966 150.927 242.414 151.024 242.746 151.397C243.049 151.738 243.364 152.025 243.69 152.259C244.433 152.791 245.156 153.282 245.857 153.733C245.907 153.765 245.96 153.779 246.017 153.774C246.032 153.774 246.047 153.775 246.062 153.777C246.122 153.787 246.126 153.775 246.073 153.74C246.024 153.71 245.981 153.67 245.946 153.621C245.805 153.437 245.848 153.367 246.077 153.412C246.375 153.466 246.671 153.476 246.965 153.442C247.248 153.409 247.548 153.41 247.864 153.445C248.874 153.557 249.9 153.693 250.942 153.852C251.063 153.869 251.183 153.856 251.3 153.811L252.277 153.434C252.384 153.392 252.465 153.422 252.52 153.524L252.587 153.65C252.669 153.802 252.624 153.88 252.452 153.885C252.393 153.885 252.344 153.914 252.307 153.971C252.22 154.098 252.25 154.14 252.396 154.098C252.531 154.058 252.627 154.096 252.684 154.21Z" fill="white"/>
<path d="M142.56 150.039H142.045C141.896 150.037 141.825 149.962 141.832 149.815C141.837 149.684 141.775 149.597 141.646 149.554C141.477 149.497 141.403 149.557 141.426 149.733C141.475 150.131 141.331 150.455 140.993 150.703C140.901 150.771 140.799 150.802 140.687 150.797C140.543 150.792 140.432 150.849 140.355 150.968C140.3 151.048 140.226 151.081 140.131 151.069C139.773 151.029 139.508 151.167 139.337 151.483C139.269 151.602 139.171 151.681 139.042 151.718C138.87 151.765 138.721 151.841 138.594 151.946C138.495 152.025 138.456 152.003 138.479 151.878C138.486 151.836 138.505 151.8 138.535 151.77C138.686 151.624 138.658 151.546 138.449 151.539C137.665 151.513 137.356 152.031 136.695 152.278C136.111 152.499 135.53 152.694 134.953 152.863C134.909 152.878 134.877 152.908 134.86 152.953C134.835 153.025 134.785 153.055 134.711 153.042C134.328 152.97 133.978 153.068 133.663 153.337C133.558 153.424 133.437 153.476 133.301 153.494L132.301 153.624C132.206 153.637 132.123 153.674 132.051 153.736C131.961 153.811 131.877 153.803 131.797 153.714C131.69 153.597 131.573 153.586 131.447 153.68C131.35 153.755 131.248 153.818 131.141 153.871C130.974 153.95 130.968 154.045 131.122 154.154C131.162 154.184 131.188 154.225 131.2 154.277C131.225 154.402 131.178 154.44 131.059 154.393C130.835 154.303 130.638 154.165 130.469 153.979C130.447 153.954 130.42 153.944 130.387 153.949C130.352 153.954 130.32 153.961 130.29 153.971C130.244 153.984 130.205 154.014 130.181 154.055C130.157 154.096 130.149 154.145 130.16 154.191C130.175 154.256 130.177 154.318 130.167 154.378C123.616 145.611 118.252 136.2 114.074 126.146C114.064 126.123 114.059 126.099 114.059 126.075C114.06 126.05 114.065 126.026 114.074 126.004C114.084 125.981 114.098 125.961 114.116 125.944C114.134 125.928 114.155 125.915 114.178 125.907L125.482 121.747C125.648 121.685 125.766 121.736 125.836 121.9C130.115 132.036 135.819 141.336 142.56 150.039Z" fill="white"/>
<path d="M252.684 154.21C252.627 154.096 252.531 154.058 252.397 154.098C252.25 154.14 252.22 154.098 252.307 153.971C252.344 153.914 252.393 153.885 252.453 153.885C252.624 153.88 252.669 153.802 252.587 153.65L252.52 153.524C252.465 153.422 252.384 153.392 252.277 153.434L251.3 153.811C251.183 153.856 251.064 153.869 250.942 153.852C249.9 153.693 248.874 153.557 247.864 153.445C247.548 153.41 247.249 153.409 246.965 153.441C246.672 153.476 246.376 153.466 246.077 153.412C245.848 153.367 245.805 153.436 245.947 153.62C245.981 153.67 246.024 153.71 246.073 153.74C246.126 153.775 246.122 153.787 246.062 153.777C246.047 153.775 246.032 153.773 246.017 153.773C245.96 153.778 245.907 153.765 245.857 153.732C245.156 153.282 244.433 152.791 243.69 152.259C243.364 152.025 243.049 151.738 242.746 151.397C242.414 151.024 241.966 150.927 241.481 150.987C241.305 151.007 241.193 150.933 241.145 150.767C241.14 150.752 241.132 150.748 241.119 150.755C240.908 150.86 240.797 150.797 240.787 150.565C240.775 150.319 240.611 150.226 240.295 150.285C240.189 150.304 240.091 150.354 240.013 150.428C239.936 150.503 239.882 150.598 239.858 150.703C239.729 151.295 239.509 151.458 239.198 151.192C240.133 150.043 241.034 148.879 241.899 147.7C242.364 147.066 243.227 145.877 244.488 144.134C249.484 137.235 253.572 129.84 256.75 121.949C256.797 121.837 256.878 121.799 256.993 121.837L268.613 125.828C268.645 125.839 268.674 125.856 268.698 125.879C268.723 125.901 268.743 125.928 268.757 125.959C268.77 125.989 268.777 126.022 268.778 126.056C268.778 126.089 268.772 126.122 268.759 126.153C264.573 136.185 259.215 145.538 252.684 154.21Z" fill="white"/>
<path d="M209.914 138.941C209.315 138.58 208.841 138.426 208.493 138.478C208.296 138.508 208.21 138.621 208.235 138.818C208.26 139.019 208.179 139.172 207.993 139.277C207.871 139.346 207.754 139.34 207.642 139.258C207.607 139.231 207.567 139.217 207.523 139.217C207.431 139.214 207.362 139.255 207.317 139.34L207.112 139.739C207.058 139.844 206.972 139.881 206.855 139.851C206.532 139.764 206.257 139.861 206.03 140.142C205.774 140.465 205.481 140.751 205.15 141C204.854 141.224 204.584 141.464 204.341 141.72C203.818 142.275 203.216 142.663 202.535 142.884C202.523 142.889 202.514 142.896 202.509 142.906C202.479 142.951 202.482 142.98 202.516 142.992C202.638 143.042 202.636 143.087 202.509 143.126C202.113 143.251 201.713 143.422 201.308 143.641C201.228 143.686 201.145 143.721 201.058 143.746L199.416 144.242C199.401 144.247 199.386 144.243 199.372 144.231C199.349 144.208 199.322 144.193 199.289 144.186C199.232 144.173 199.178 144.182 199.125 144.212C198.892 144.336 198.642 144.468 198.375 144.607C195.886 142.434 193.066 141.593 189.915 142.086C186.261 142.658 183.539 144.653 181.749 148.073C181.376 147.688 180.948 147.573 180.465 147.73C180.339 147.772 180.209 147.776 180.077 147.741C179.523 147.589 179.002 147.495 178.514 147.458C177.425 147.373 176.296 147.349 175.127 147.387C174.747 147.399 174.378 147.334 174.023 147.193C173.523 146.994 172.997 146.883 172.445 146.861C171.997 146.843 171.613 146.675 171.292 146.357C171.214 146.279 171.121 146.217 171.019 146.175C170.916 146.133 170.806 146.111 170.695 146.111C170.531 146.108 170.373 146.138 170.221 146.2C170.095 146.253 169.998 146.219 169.931 146.1L169.811 145.88C169.714 145.703 169.666 145.715 169.666 145.917C169.663 146.153 169.559 146.287 169.352 146.32C169.243 146.337 169.208 146.398 169.248 146.503C169.312 146.669 169.407 146.805 169.531 146.909C169.608 146.974 169.6 147.022 169.505 147.055C169.234 147.149 169.131 147.332 169.196 147.603C169.23 147.75 169.173 147.811 169.024 147.786C168.922 147.768 168.808 147.724 168.681 147.652C169.753 142.998 172.073 139.085 175.642 135.912C180.554 131.547 186.337 129.531 192.992 129.865C199.842 130.208 205.482 133.233 209.914 138.941Z" fill="white"/>
</svg>
