<svg  viewBox="0 0 250 222" fill="none" xmlns="http://www.w3.org/2000/svg">
<path d="M51.8707 165.52C51.8707 171.313 50.2164 176.098 46.9202 179.887C43.6362 183.663 39.3229 185.545 33.9803 185.545C28.6683 185.545 24.3795 183.663 21.1139 179.887C17.8421 176.098 16.2124 171.313 16.2124 165.52V164.929C16.2124 159.191 17.836 154.425 21.0894 150.636C24.355 146.835 28.6438 144.929 33.9558 144.929C39.2984 144.929 43.6178 146.835 46.9202 150.636C50.2164 154.425 51.8707 159.191 51.8707 164.929V165.52ZM44.0038 164.88C44.0038 160.796 43.1522 157.488 41.455 154.941C39.7701 152.383 37.2704 151.104 33.9558 151.104C30.635 151.104 28.1598 152.377 26.53 154.917C24.9125 157.445 24.1038 160.766 24.1038 164.88V165.52C24.1038 169.69 24.9248 173.042 26.579 175.582C28.2272 178.128 30.6963 179.395 33.9803 179.395C37.3133 179.395 39.813 178.128 41.4795 175.582C43.1583 173.042 44.0038 169.69 44.0038 165.52V164.88Z" fill="#F0F2F2"/>
<path d="M86.5832 158.09H80.6769L79.6476 152.678C78.9614 152.235 77.9566 151.86 76.6332 151.546C75.3221 151.22 73.9374 151.054 72.4669 151.054C70.2919 151.054 68.6193 151.516 67.4429 152.432C66.2666 153.336 65.6784 154.511 65.6784 155.95C65.6784 157.297 66.2911 158.404 67.5165 159.271C68.7541 160.126 70.8862 161.03 73.9129 161.977C78.2568 163.195 81.5469 164.794 83.7894 166.775C86.0257 168.761 87.1469 171.375 87.1469 174.622C87.1469 178.005 85.8112 180.668 83.1522 182.618C80.487 184.573 76.9763 185.545 72.614 185.545C69.4893 185.545 66.6709 185.053 64.1589 184.069C61.6592 183.073 59.5638 181.695 57.885 179.936V171.695H63.9874L64.8451 177.304C65.6294 177.962 66.6955 178.503 68.0556 178.927C69.428 179.34 70.9475 179.543 72.614 179.543C74.7706 179.543 76.4126 179.1 77.54 178.214C78.6673 177.328 79.231 176.148 79.231 174.671C79.231 173.146 78.6918 171.928 77.6135 171.006C76.5474 170.09 74.6787 169.222 72.0013 168.398C67.3265 167.057 63.7913 165.458 61.3896 163.601C59.0001 161.731 57.8115 159.173 57.8115 155.925C57.8115 152.727 59.1594 150.113 61.8552 148.078C64.5633 146.048 67.9637 145.003 72.0503 144.953C75.0709 144.953 77.8218 145.415 80.3093 146.331C82.8091 147.254 84.8983 148.484 86.5832 150.021V158.09Z" fill="#F0F2F2"/>
<path d="M91.5156 180.231L94.334 179.838L106.294 145.495H114.381L126.267 179.838L129.085 180.231V184.979H115.68V180.231L118.4 179.739L116.685 174.327H103.916L102.201 179.739L104.921 180.231V184.979H91.5156V180.231ZM105.779 168.497H114.822L110.386 154.572H110.215L105.779 168.497Z" fill="#F0F2F2"/>
<path d="M171.306 155.778L171.135 155.729L160.596 184.979H155.303L144.814 155.852L144.667 155.876L145.426 173.195V179.42L149.642 180.231V184.979H133.344V180.231L137.535 179.42V151.079L133.344 150.267V145.495H147.828L157.852 174.598H157.999L168.12 145.495H182.653V150.267L178.438 151.079V179.42L182.653 180.231V184.979H166.356V180.231L170.546 179.42V173.195L171.306 155.778Z" fill="#F0F2F2"/>
<path d="M186.716 180.231L189.535 179.838L201.494 145.495H209.582L221.468 179.838L224.286 180.231V184.979H210.881V180.231L213.601 179.739L211.885 174.327H199.117L197.402 179.739L200.122 180.231V184.979H186.716V180.231ZM200.98 168.497H210.023L205.587 154.572H205.415L200.98 168.497Z" fill="#F0F2F2"/>
<path d="M73.5221 204.569C75.0538 204.569 76.2486 204.877 77.1002 205.48C77.9641 206.07 78.3991 206.968 78.3991 208.161C78.3991 208.77 78.2337 209.311 77.9089 209.785C77.5965 210.264 77.1308 210.621 76.512 210.867C77.2963 211.033 77.8844 211.396 78.2766 211.95C78.6687 212.491 78.8647 213.124 78.8647 213.844C78.8647 215.092 78.4481 216.046 77.6149 216.698C76.7939 217.337 75.6359 217.657 74.1348 217.657H67.7139V216.083L69.1108 215.812V206.414L67.7139 206.144V204.569H73.5221ZM71.7331 211.876V215.64H74.1348C74.821 215.64 75.3418 215.492 75.7033 215.197C76.077 214.889 76.2669 214.434 76.2669 213.844C76.2669 213.204 76.1076 212.725 75.8013 212.392C75.4888 212.048 74.9987 211.876 74.3309 211.876H71.7331ZM71.7331 210.055H73.5956C74.2941 210.055 74.8333 209.92 75.2131 209.637C75.5869 209.342 75.7768 208.918 75.7768 208.358C75.7768 207.755 75.5869 207.312 75.2131 207.029C74.8333 206.734 74.2696 206.587 73.5221 206.587H71.7331V210.055Z" fill="#F0F2F2"/>
<path d="M84.3633 216.083L85.2946 215.96L89.2648 204.569H91.9361L95.8818 215.96L96.813 216.083V217.657H92.3527V216.083L93.2595 215.935L92.6958 214.115H88.4805L87.8923 215.935L88.7991 216.083V217.657H84.3633V216.083ZM89.0932 212.196H92.0831L90.6127 207.595H90.5637L89.0932 212.196Z" fill="#F0F2F2"/>
<path d="M108.162 204.569C109.645 204.569 110.809 204.914 111.642 205.603C112.488 206.279 112.917 207.214 112.917 208.407C112.917 209.065 112.733 209.637 112.378 210.129C112.035 210.621 111.52 211.015 110.834 211.31C111.6 211.544 112.157 211.919 112.5 212.442C112.843 212.971 113.015 213.623 113.015 214.41V215.074C113.015 215.369 113.064 215.603 113.162 215.763C113.272 215.91 113.462 216.003 113.726 216.033L114.069 216.083V217.657H112.696C111.845 217.657 111.25 217.43 110.907 216.968C110.564 216.513 110.393 215.91 110.393 215.172V214.434C110.393 213.795 110.221 213.297 109.878 212.934C109.547 212.577 109.075 212.386 108.457 212.368H106.324V215.812L107.721 216.083V217.657H102.305V216.083L103.702 215.812V206.414L102.305 206.144V204.569H108.162ZM106.324 210.351H108.113C108.849 210.351 109.394 210.197 109.755 209.883C110.129 209.576 110.319 209.121 110.319 208.53C110.319 207.94 110.129 207.472 109.755 207.128C109.394 206.771 108.861 206.587 108.162 206.587H106.324V210.351Z" fill="#F0F2F2"/>
<path d="M125.418 204.569C126.901 204.569 128.065 204.914 128.898 205.603C129.743 206.279 130.172 207.214 130.172 208.407C130.172 209.065 129.988 209.637 129.633 210.129C129.29 210.621 128.775 211.015 128.089 211.31C128.855 211.544 129.413 211.919 129.756 212.442C130.099 212.971 130.27 213.623 130.27 214.41V215.074C130.27 215.369 130.319 215.603 130.417 215.763C130.528 215.91 130.718 216.003 130.981 216.033L131.324 216.083V217.657H129.952C129.1 217.657 128.506 217.43 128.163 216.968C127.82 216.513 127.648 215.91 127.648 215.172V214.434C127.648 213.795 127.476 213.297 127.133 212.934C126.802 212.577 126.331 212.386 125.712 212.368H123.58V215.812L124.977 216.083V217.657H119.561V216.083L120.957 215.812V206.414L119.561 206.144V204.569H125.418ZM123.58 210.351H125.369C126.104 210.351 126.649 210.197 127.011 209.883C127.385 209.576 127.574 209.121 127.574 208.53C127.574 207.94 127.385 207.472 127.011 207.128C126.649 206.771 126.116 206.587 125.418 206.587H123.58V210.351Z" fill="#F0F2F2"/>
<path d="M145.246 211.9H140.835V215.64H145.026L145.148 214.09H147.134V217.657H136.816V216.083L138.213 215.812V206.414L136.816 206.144V204.569H147.109V208.161H145.124L145.001 206.587H140.835V209.883H145.246V211.9Z" fill="#F0F2F2"/>
<path d="M164.671 204.569V208.063H162.661L162.539 206.587H160.161V215.812L161.558 216.083V217.657H156.142V216.083L157.539 215.812V206.587H155.137L155.039 208.063H153.054V204.569H164.671Z" fill="#F0F2F2"/>
<path d="M182.09 211.211C182.09 213.13 181.538 214.723 180.448 215.984C179.351 217.233 177.923 217.854 176.159 217.854C174.394 217.854 172.961 217.233 171.87 215.984C170.792 214.723 170.252 213.13 170.252 211.211V211.015C170.252 209.114 170.792 207.54 171.87 206.291C172.961 205.03 174.382 204.397 176.134 204.397C177.911 204.397 179.351 205.03 180.448 206.291C181.538 207.54 182.09 209.114 182.09 211.015V211.211ZM179.467 210.99C179.467 209.649 179.185 208.555 178.634 207.718C178.076 206.869 177.243 206.439 176.134 206.439C175.038 206.439 174.223 206.857 173.683 207.694C173.144 208.53 172.875 209.631 172.875 210.99V211.211C172.875 212.589 173.144 213.708 173.683 214.557C174.235 215.394 175.062 215.812 176.159 215.812C177.249 215.812 178.076 215.394 178.634 214.557C179.185 213.708 179.467 212.589 179.467 211.211V210.99Z" fill="#F0F2F2"/>
</svg>
