<?xml version="1.0" encoding="UTF-8"?>
<svg id="Layer_1" xmlns="http://www.w3.org/2000/svg" version="1.1" viewBox="0 0 1080 1080">
  <!-- Generator: Adobe Illustrator 29.5.1, SVG Export Plug-In . SVG Version: 2.1.0 Build 141)  -->
  <path d="M676.82,356.77c21.83-26.12,49.11-64.05,71.64-86.86,56.28-56.98,137.84,2.8,90.07,76.14-31.6,48.52-77.7,97.47-112.33,145.48-36.55,50.67-47.23,60.24-50.96,126.72-5.71,101.8-.53,207.31-4.14,309.41-20.86,53.08-90.29,57.07-108.3-1.58-2.37-7.72.07-20.63-5.84-23.73,4.57,75.48-104.27,91.58-114.69,15.35-14.63-106.93,18.63-251.42-9.73-356.08-15.5-57.22-122.27-160.01-157.18-219.08-18.36-31.07-21.35-58.96,9.75-83.06,26.77-20.74,56.4-15.07,80.18,7.07,41.52,38.66,102.78,148.04,147.43,169.6,84.98,41.03,119.99-26.63,164.09-79.37ZM656.75,441.23c-16.5,16.34-39.42,31.13-62.07,37.22-130.34,35.07-182.47-116.5-258.98-189.27-20.34-18.21-44.67,3.23-34.69,27.71,41.93,60.53,94.15,117.64,135.43,178.12,29.19,42.77,37.39,70.92,40.51,123.23l3.42,299.68c18.69,28.99,38.64,13.11,41.68-17.39,4.17-41.91-1.07-94.02,7.84-135,4.92-22.61,29.44-36.87,46.99-19.02,17.94,18.24,14.88,126.33,18.39,157.55,2.96,26.41,24.19,42.2,40.27,15.89l4.87-315.64c6.22-97.82,99.07-182.56,154.88-259.7,5.36-7.41,22.45-29.37,22.91-36.53,1.22-18.66-21.49-32.95-36.58-18.92-45.43,44.26-80.55,108.2-124.86,152.08Z"/>
  <path d="M555.79,224.32c123.38-1.69,129.97,182.97,13.32,193.69-138.32,12.7-140.21-191.95-13.32-193.69ZM604.29,361.05c31.6-44.05,3.83-103.96-52.72-99.97-55.77,3.94-73.6,79.8-27.76,111.72,24.7,17.2,62.64,13.13,80.48-11.75Z"/>
</svg>