<svg 
width="28"
height="28"
viewBox="0 0 28 28"
fill="none" 
xmlns="http://www.w3.org/2000/svg">

<path
 d="M16.0486 15.9639C14.9675 17.0953 13.174 17.136 12.0427 16.055C10.9113 14.9739 10.8706 13.1804 11.9516 12.0491C13.0327 10.9177 14.8262 10.877 15.9575 11.958C17.0889 13.0391 17.1296 14.8326 16.0486 15.9639Z"
   stroke-width="1.2"/>
<path
 d="M12.7359 6.46592C13.0072 5.07803 14.9928 5.07803 15.2641 6.46592V6.46592C15.458 7.45754 16.666 7.85004 17.4057 7.16176V7.16176C18.441 6.19842 20.0474 7.36552 19.4511 8.64785V8.64785C19.0251 9.56403 19.7717 10.5916 20.7747 10.4696V10.4696C22.1785 10.2988 22.7921 12.1872 21.556 12.8741V12.8741C20.6728 13.3649 20.6728 14.6351 21.556 15.1259V15.1259C22.7921 15.8128 22.1785 17.7012 20.7747 17.5304V17.5304C19.7717 17.4084 19.0251 18.436 19.4511 19.3522V19.3522C20.0474 20.6345 18.441 21.8016 17.4057 20.8382V20.8382C16.666 20.15 15.458 20.5425 15.2641 21.5341V21.5341C14.9928 22.922 13.0072 22.922 12.7359 21.5341V21.5341C12.542 20.5425 11.334 20.15 10.5943 20.8382V20.8382C9.55898 21.8016 7.95261 20.6345 8.54887 19.3522V19.3522C8.97489 18.436 8.2283 17.4084 7.22531 17.5304V17.5304C5.82149 17.7012 5.20791 15.8128 6.44403 15.1259V15.1259C7.3272 14.6351 7.3272 13.3649 6.44403 12.8741V12.8741C5.20791 12.1872 5.82149 10.2988 7.22531 10.4696V10.4696C8.2283 10.5916 8.97489 9.56403 8.54887 8.64785V8.64785C7.95261 7.36552 9.55898 6.19842 10.5943 7.16176V7.16176C11.334 7.85004 12.542 7.45754 12.7359 6.46592V6.46592Z"
  stroke-width="1.2"/>
</svg>
