<svg width="24" height="24" viewBox="0 0 24 24" fill="none" xmlns="http://www.w3.org/2000/svg">
<path d="M3 4C3 3.44772 3.44772 3 4 3H6.78947V7H3V4Z" />
<path d="M17.2106 3H20C20.5523 3 21 3.44772 21 4V7H17.2106V3Z" />
<path d="M3 7H6.78947V11H3V7Z" />
<path d="M17.2106 7H21V11H18.2106C17.6583 11 17.2106 10.5523 17.2106 10V7Z" />
<path d="M3 11H6.78947V15H3V11Z" />
<path d="M3 15H6.78947V19H4C3.44772 19 3 18.5523 3 18V15Z" />
<path d="M21 13.5V4C21 3.44772 20.5523 3 20 3H4C3.44772 3 3 3.44772 3 4V18C3 18.5523 3.44772 19 4 19H10"  />
<rect x="12.5" y="14.5" width="7" height="7" rx="1.5" />
<path d="M14.7142 17.5715L15.9999 15.8572L16.6428 16.7144L17.2857 17.5715"   />
<path d="M16 16.7144V20.1429"  />
<path d="M11 8L14 10.5L11 13"   />
<path d="M11 8V13"  />
</svg>
